<svg width="177" height="286" viewBox="0 0 177 286" fill="none" xmlns="http://www.w3.org/2000/svg">
<path d="M22.373 112.471C22.373 105.798 25.7096 102.461 32.3828 102.461H64.8535C68.597 102.461 71.2012 103.275 72.666 104.902C74.1309 106.367 74.8633 108.89 74.8633 112.471V142.5C74.8633 148.522 73.2357 154.382 69.9805 160.078L42.3926 207.441H22.373L45.5664 154.951H32.3828C28.8021 154.951 26.1979 154.219 24.5703 152.754C23.1055 151.289 22.373 148.685 22.373 144.941V112.471ZM104.893 112.471C104.893 105.798 108.229 102.461 114.902 102.461H147.373C151.117 102.461 153.721 103.275 155.186 104.902C156.65 106.367 157.383 108.89 157.383 112.471V142.5C157.383 148.522 155.755 154.382 152.5 160.078L124.912 207.441H104.893L127.842 154.951H114.902C111.322 154.951 108.717 154.219 107.09 152.754C105.625 151.289 104.893 148.685 104.893 144.941V112.471Z" fill="white"/>
<path d="M19.373 109.471C19.373 102.798 22.7096 99.4609 29.3828 99.4609H61.8535C65.597 99.4609 68.2012 100.275 69.666 101.902C71.1309 103.367 71.8633 105.89 71.8633 109.471V139.5C71.8633 145.522 70.2357 151.382 66.9805 157.078L39.3926 204.441H19.373L42.5664 151.951H29.3828C25.8021 151.951 23.1979 151.219 21.5703 149.754C20.1055 148.289 19.373 145.685 19.373 141.941V109.471ZM101.893 109.471C101.893 102.798 105.229 99.4609 111.902 99.4609H144.373C148.117 99.4609 150.721 100.275 152.186 101.902C153.65 103.367 154.383 105.89 154.383 109.471V139.5C154.383 145.522 152.755 151.382 149.5 157.078L121.912 204.441H101.893L124.842 151.951H111.902C108.322 151.951 105.717 151.219 104.09 149.754C102.625 148.289 101.893 145.685 101.893 141.941V109.471Z" fill="#1B4ED8"/>
</svg>
