<svg width="22" height="22" viewBox="0 0 22 22" fill="none" xmlns="http://www.w3.org/2000/svg">
<path d="M1.42822 12.5757L0.344238 11.4917C-0.114746 11.0327 -0.114746 10.2905 0.344238 9.83643L9.83154 0.344238C10.2905 -0.114746 11.0327 -0.114746 11.4868 0.344238L20.9741 9.83154C21.4331 10.2905 21.4331 11.0327 20.9741 11.4868L19.8901 12.5708C19.4263 13.0347 18.6694 13.0249 18.2153 12.5513L12.6147 6.67236V20.7056C12.6147 21.355 12.0923 21.8774 11.4429 21.8774H9.88037C9.23096 21.8774 8.7085 21.355 8.7085 20.7056V6.67236L3.10303 12.5562C2.64893 13.0347 1.89209 13.0444 1.42822 12.5757Z" fill="#1B4ED8"/>
</svg>
