<svg width="150" height="150" viewBox="0 0 150 150" fill="none" xmlns="http://www.w3.org/2000/svg">
<path d="M105.234 131.766L79.6875 118.969V117.188C79.6875 115.944 79.1934 114.752 78.3145 113.873C77.4356 112.994 76.2431 112.5 75 112.5C73.7569 112.5 72.5644 112.994 71.6855 113.873C70.8066 114.752 70.3125 115.944 70.3125 117.188V118.969L44.7656 131.766C43.7515 132.376 43.0057 133.347 42.6781 134.484C42.3504 135.622 42.4651 136.841 42.9992 137.897C43.5333 138.953 44.4471 139.769 45.5573 140.179C46.6674 140.589 47.8917 140.565 48.9844 140.109L70.3125 129.469V131.25C70.3125 132.493 70.8066 133.686 71.6855 134.565C72.5644 135.443 73.7569 135.938 75 135.938C76.2431 135.938 77.4356 135.443 78.3145 134.565C79.1934 133.686 79.6875 132.493 79.6875 131.25V129.469L101.016 140.109C101.664 140.456 102.39 140.634 103.125 140.625C103.991 140.622 104.839 140.38 105.575 139.925C106.312 139.47 106.907 138.82 107.297 138.047C107.853 136.94 107.948 135.658 107.562 134.481C107.175 133.304 106.338 132.328 105.234 131.766Z" fill="#263238"/>
<path d="M107.438 96.6563C107.086 95.8003 106.489 95.0677 105.721 94.5502C104.954 94.0331 104.05 93.7547 103.125 93.75H46.875C45.9496 93.7547 45.0462 94.0331 44.2788 94.5502C43.5113 95.0677 42.9142 95.8003 42.5625 96.6563C42.2035 97.5098 42.1055 98.4506 42.2806 99.36C42.4559 100.269 42.8964 101.107 43.5469 101.766L57.6094 115.828C58.0472 116.263 58.567 116.606 59.138 116.84C59.7089 117.073 60.3206 117.191 60.9375 117.188H89.0625C89.6794 117.191 90.2911 117.073 90.862 116.84C91.433 116.606 91.9528 116.263 92.3906 115.828L106.453 101.766C107.104 101.107 107.544 100.269 107.719 99.36C107.895 98.4506 107.797 97.5098 107.438 96.6563Z" fill="#FF6F00"/>
<path d="M126.562 9.375H23.4375C15.671 9.375 9.375 15.671 9.375 23.4375V89.0625C9.375 96.8292 15.671 103.125 23.4375 103.125H126.562C134.329 103.125 140.625 96.8292 140.625 89.0625V23.4375C140.625 15.671 134.329 9.375 126.562 9.375Z" fill="#455A64"/>
<path d="M107.812 42.1875H42.1875C40.9443 42.1875 39.752 41.6936 38.8729 40.8146C37.9939 39.9355 37.5 38.7432 37.5 37.5C37.5 36.2568 37.9939 35.0645 38.8729 34.1854C39.752 33.3064 40.9443 32.8125 42.1875 32.8125H107.812C109.056 32.8125 110.248 33.3064 111.127 34.1854C112.006 35.0645 112.5 36.2568 112.5 37.5C112.5 38.7432 112.006 39.9355 111.127 40.8146C110.248 41.6936 109.056 42.1875 107.812 42.1875Z" fill="#BDBDBD"/>
<path d="M65.625 60.9375H42.1875C40.9443 60.9375 39.752 60.4434 38.8729 59.5645C37.9939 58.6856 37.5 57.4931 37.5 56.25C37.5 55.0069 37.9939 53.8144 38.8729 52.9355C39.752 52.0566 40.9443 51.5625 42.1875 51.5625H65.625C66.8681 51.5625 68.0606 52.0566 68.9395 52.9355C69.8184 53.8144 70.3125 55.0069 70.3125 56.25C70.3125 57.4931 69.8184 58.6856 68.9395 59.5645C68.0606 60.4434 66.8681 60.9375 65.625 60.9375Z" fill="#F5F5F5"/>
<path d="M89.0625 79.6875H42.1875C40.9443 79.6875 39.752 79.1934 38.8729 78.3145C37.9939 77.4356 37.5 76.2431 37.5 75C37.5 73.7569 37.9939 72.5644 38.8729 71.6855C39.752 70.8066 40.9443 70.3125 42.1875 70.3125H89.0625C90.3056 70.3125 91.4981 70.8066 92.377 71.6855C93.2559 72.5644 93.75 73.7569 93.75 75C93.75 76.2431 93.2559 77.4356 92.377 78.3145C91.4981 79.1934 90.3056 79.6875 89.0625 79.6875Z" fill="#BDBDBD"/>
<path d="M70.3125 117.188V118.969L44.7656 131.766C43.7515 132.376 43.0058 133.347 42.6781 134.484C42.3504 135.622 42.4651 136.841 42.9992 137.897C43.5333 138.953 44.4471 139.769 45.5573 140.179C46.6674 140.589 47.8917 140.565 48.9844 140.109L70.3125 129.469V131.25C70.3125 132.493 70.8066 133.686 71.6855 134.565C72.5644 135.443 73.7569 135.938 75 135.938V112.5C73.7569 112.5 72.5644 112.994 71.6855 113.873C70.8066 114.752 70.3125 115.944 70.3125 117.188Z" fill="#616161"/>
<path d="M46.875 93.75C45.9496 93.7547 45.0462 94.0331 44.2788 94.5502C43.5113 95.0677 42.9142 95.8003 42.5625 96.6563C42.2035 97.5098 42.1055 98.4506 42.2806 99.36C42.4559 100.269 42.8964 101.107 43.5469 101.766L57.6094 115.828C58.0472 116.263 58.567 116.606 59.138 116.84C59.7089 117.073 60.3206 117.191 60.9375 117.188H75V93.75H46.875Z" fill="#FFA000"/>
<path d="M23.4375 9.375C19.7079 9.375 16.131 10.8566 13.4938 13.4938C10.8566 16.131 9.375 19.7079 9.375 23.4375V89.0625C9.375 92.7919 10.8566 96.3689 13.4938 99.0061C16.131 101.643 19.7079 103.125 23.4375 103.125H75V9.375H23.4375Z" fill="#78909C"/>
<path d="M42.1875 32.8125C40.9443 32.8125 39.752 33.3064 38.8729 34.1854C37.9939 35.0645 37.5 36.2568 37.5 37.5C37.5 38.7432 37.9939 39.9355 38.8729 40.8146C39.752 41.6936 40.9443 42.1875 42.1875 42.1875H75V32.8125H42.1875Z" fill="#F5F5F5"/>
<path d="M65.625 51.5625H42.1875C40.9443 51.5625 39.752 52.0566 38.8729 52.9355C37.9939 53.8144 37.5 55.0069 37.5 56.25C37.5 57.4931 37.9939 58.6856 38.8729 59.5645C39.752 60.4434 40.9443 60.9375 42.1875 60.9375H65.625C66.8681 60.9375 68.0606 60.4434 68.9395 59.5645C69.8184 58.6856 70.3125 57.4931 70.3125 56.25C70.3125 55.0069 69.8184 53.8144 68.9395 52.9355C68.0606 52.0566 66.8681 51.5625 65.625 51.5625Z" fill="#F5F5F5"/>
<path d="M42.1875 70.3125C40.9443 70.3125 39.752 70.8066 38.8729 71.6855C37.9939 72.5644 37.5 73.7569 37.5 75C37.5 76.2431 37.9939 77.4356 38.8729 78.3145C39.752 79.1934 40.9443 79.6875 42.1875 79.6875H75V70.3125H42.1875Z" fill="#F5F5F5"/>
</svg>
