<svg width="150" height="150" viewBox="0 0 150 150" fill="none" xmlns="http://www.w3.org/2000/svg">
<g clip-path="url(#clip0_81_1630)">
<path d="M75 147.803C115.208 147.803 147.803 115.208 147.803 75C147.803 34.7922 115.208 2.19727 75 2.19727C34.7922 2.19727 2.19727 34.7922 2.19727 75C2.19727 115.208 34.7922 147.803 75 147.803Z" fill="#FF8103"/>
<path d="M9.49219 75C9.49219 36.0059 40.1367 4.18945 78.6328 2.28516C77.4316 2.22656 76.2012 2.19727 74.9707 2.19727C34.7754 2.19727 2.19727 34.7754 2.19727 75C2.19727 115.225 34.7754 147.803 75 147.803C76.2305 147.803 77.4316 147.773 78.6621 147.715C40.1367 145.811 9.49219 113.994 9.49219 75Z" fill="#FF9D4D"/>
<path d="M75 132.393C106.697 132.393 132.393 106.697 132.393 75C132.393 43.303 106.697 17.6074 75 17.6074C43.303 17.6074 17.6074 43.303 17.6074 75C17.6074 106.697 43.303 132.393 75 132.393Z" fill="#F9C04A"/>
<path d="M24.9023 75C24.9023 44.5312 48.6621 19.5996 78.6328 17.7246C77.4316 17.6367 76.2012 17.6074 74.9707 17.6074C43.3008 17.6074 17.6074 43.3008 17.6074 75C17.6074 106.699 43.3008 132.393 75 132.393C76.2305 132.393 77.4316 132.363 78.6621 132.275C48.6621 130.4 24.9023 105.469 24.9023 75Z" fill="#FFDA9F"/>
<path d="M74.3848 100.4C63.9844 100.4 58.3301 94.4238 58.3301 91.875C58.3301 90.8203 59.3262 89.5898 60.2051 89.5898C61.9336 89.5898 63.4863 96.3867 74.3848 96.4746V70.6934C67.2656 68.3203 59.7949 66.0352 59.7949 55.5469C59.7949 45.2344 67.5879 42.2754 74.3848 41.8652V39.3164C74.3848 38.584 75.1172 37.8516 76.1133 37.8516C76.9336 37.8516 77.7539 38.584 77.7539 39.3164V41.7773C83.8184 41.9531 89.7949 44.1504 89.7949 46.377C89.7949 47.1973 88.9746 48.75 87.9199 48.75C86.6895 48.75 84.082 46.0547 77.7539 45.7324V67.5C84.4629 69.873 91.2598 73.2422 91.2598 84.5215C91.2598 94.3359 85.7812 99.2578 77.7539 100.254V103.535C77.7539 104.268 76.9336 105 76.1133 105C75.1172 105 74.3848 104.268 74.3848 103.535V100.4ZM74.5605 66.3281V45.7031C68.9941 46.1133 63.75 48.3105 63.75 55.1074C63.75 62.2559 68.8184 64.3652 74.5605 66.3281ZM77.666 71.8945V96.2109C83.877 95.3027 87.2461 91.4648 87.2461 84.8145C87.2461 76.9922 82.8223 74.0332 77.666 71.8945Z" fill="#133260"/>
<path d="M119.297 32.0215C118.945 32.0215 118.623 31.9043 118.359 31.6406C117.832 31.1133 117.832 30.293 118.359 29.7656L121.729 26.3965C122.256 25.8691 123.076 25.8691 123.604 26.3965C124.131 26.9238 124.131 27.7441 123.604 28.2715L120.234 31.6406C119.971 31.9043 119.619 32.0215 119.297 32.0215Z" fill="#133260"/>
<path d="M27.334 123.984C26.9824 123.984 26.6602 123.867 26.3965 123.604C25.8691 123.076 25.8691 122.256 26.3965 121.729L29.7656 118.359C30.293 117.832 31.1133 117.832 31.6406 118.359C32.168 118.887 32.168 119.707 31.6406 120.234L28.2715 123.604C28.0078 123.867 27.6563 123.984 27.334 123.984Z" fill="#133260"/>
<path d="M122.666 123.984C122.314 123.984 121.992 123.867 121.729 123.604L118.359 120.234C117.832 119.707 117.832 118.887 118.359 118.359C118.887 117.832 119.707 117.832 120.234 118.359L123.604 121.729C124.131 122.256 124.131 123.076 123.604 123.604C123.34 123.867 123.018 123.984 122.666 123.984Z" fill="#133260"/>
<path d="M30.7031 32.0215C30.3516 32.0215 30.0293 31.9043 29.7656 31.6406L26.3965 28.2715C25.8691 27.7441 25.8691 26.9238 26.3965 26.3965C26.9238 25.8691 27.7441 25.8691 28.2715 26.3965L31.6406 29.7656C32.168 30.293 32.168 31.1133 31.6406 31.6406C31.377 31.9043 31.0547 32.0215 30.7031 32.0215Z" fill="#133260"/>
<path d="M142.412 76.3184H137.637C136.904 76.3184 136.318 75.7324 136.318 75C136.318 74.2676 136.904 73.6816 137.637 73.6816H142.412C143.145 73.6816 143.73 74.2676 143.73 75C143.73 75.7324 143.145 76.3184 142.412 76.3184Z" fill="#133260"/>
<path d="M12.3633 76.3184H7.58789C6.85547 76.3184 6.26953 75.7324 6.26953 75C6.26953 74.2676 6.85547 73.6816 7.58789 73.6816H12.3633C13.0957 73.6816 13.6816 74.2676 13.6816 75C13.6816 75.7324 13.0957 76.3184 12.3633 76.3184Z" fill="#133260"/>
<path d="M75 143.73C74.2676 143.73 73.6816 143.145 73.6816 142.412V137.637C73.6816 136.904 74.2676 136.318 75 136.318C75.7324 136.318 76.3184 136.904 76.3184 137.637V142.412C76.3184 143.145 75.7324 143.73 75 143.73Z" fill="#133260"/>
<path d="M75 13.6816C74.2676 13.6816 73.6816 13.0957 73.6816 12.3633V7.58789C73.6816 6.85547 74.2676 6.26953 75 6.26953C75.7324 6.26953 76.3184 6.85547 76.3184 7.58789V12.3633C76.3184 13.0957 75.7324 13.6816 75 13.6816Z" fill="#133260"/>
<path d="M75 149.121C55.1953 149.121 36.5918 141.416 22.5879 127.412C8.58398 113.408 0.878906 94.8047 0.878906 75C0.878906 55.1953 8.58398 36.5918 22.5879 22.5879C36.5918 8.58398 55.1953 0.878906 75 0.878906C94.8047 0.878906 113.408 8.58398 127.412 22.5879C141.416 36.5918 149.121 55.1953 149.121 75C149.121 94.8047 141.416 113.408 127.412 127.412C113.408 141.416 94.8047 149.121 75 149.121ZM75 3.51562C55.8984 3.51562 37.9395 10.957 24.4629 24.4629C10.957 37.9395 3.51562 55.8984 3.51562 75C3.51562 94.1016 10.957 112.061 24.4629 125.537C37.9395 139.043 55.8984 146.484 75 146.484C94.1016 146.484 112.061 139.043 125.537 125.537C139.043 112.061 146.484 94.1016 146.484 75C146.484 55.8984 139.043 37.9395 125.537 24.4629C112.061 10.957 94.1016 3.51562 75 3.51562Z" fill="#133260"/>
<path d="M75 133.711C42.627 133.711 16.2891 107.373 16.2891 75C16.2891 42.627 42.627 16.2891 75 16.2891C107.373 16.2891 133.711 42.627 133.711 75C133.711 107.373 107.373 133.711 75 133.711ZM75 18.9258C44.0918 18.9258 18.9258 44.0918 18.9258 75C18.9258 105.908 44.0918 131.074 75 131.074C105.908 131.074 131.074 105.908 131.074 75C131.074 44.0918 105.908 18.9258 75 18.9258Z" fill="#133260"/>
</g>
<defs>
<clipPath id="clip0_81_1630">
<rect width="150" height="150" fill="white"/>
</clipPath>
</defs>
</svg>
