<svg width="28" height="33" viewBox="0 0 28 33" fill="none" xmlns="http://www.w3.org/2000/svg">
<path fill-rule="evenodd" clip-rule="evenodd" d="M19.4518 32.1374C22.5184 31.5274 25.3353 30.0217 27.5462 27.8108L16.3676 16.6323L27.5462 5.45379C25.3353 3.24289 22.5184 1.73724 19.4518 1.12726C16.3852 0.517269 13.2066 0.830336 10.3179 2.02687C7.42919 3.2234 4.96018 5.24966 3.22309 7.84941C1.48599 10.4492 0.558823 13.5056 0.558823 16.6323C0.558823 19.759 1.48599 22.8155 3.22309 25.4152C4.96019 28.015 7.42919 30.0412 10.3179 31.2378C13.2066 32.4343 16.3852 32.7474 19.4518 32.1374ZM19.6765 7.44114C20.4887 7.44114 21.1471 6.78273 21.1471 5.97055C21.1471 5.15837 20.4887 4.49996 19.6765 4.49996C18.8643 4.49996 18.2059 5.15837 18.2059 5.97055C18.2059 6.78273 18.8643 7.44114 19.6765 7.44114Z" fill="#BCBCBC"/>
</svg>
