<svg width="136" height="106" viewBox="0 0 136 106" fill="none" xmlns="http://www.w3.org/2000/svg">
<path d="M0.373047 10.4707C0.373047 3.79753 3.70964 0.460938 10.3828 0.460938H42.8535C46.597 0.460938 49.2012 1.27474 50.666 2.90234C52.1309 4.36719 52.8633 6.88997 52.8633 10.4707V40.5C52.8633 46.5221 51.2357 52.3815 47.9805 58.0781L20.3926 105.441H0.373047L23.5664 52.9512H10.3828C6.80208 52.9512 4.19792 52.2188 2.57031 50.7539C1.10547 49.2891 0.373047 46.6849 0.373047 42.9414V10.4707ZM82.8926 10.4707C82.8926 3.79753 86.2292 0.460938 92.9023 0.460938H125.373C129.117 0.460938 131.721 1.27474 133.186 2.90234C134.65 4.36719 135.383 6.88997 135.383 10.4707V40.5C135.383 46.5221 133.755 52.3815 130.5 58.0781L102.912 105.441H82.8926L105.842 52.9512H92.9023C89.3216 52.9512 86.7174 52.2188 85.0898 50.7539C83.625 49.2891 82.8926 46.6849 82.8926 42.9414V10.4707Z" fill="#1B4ED8"/>
</svg>
