<svg width="450" height="332" viewBox="0 0 450 332" fill="none" xmlns="http://www.w3.org/2000/svg">
<path d="M404.91 309.141H375.102V309.366H404.91V309.141Z" fill="#EBEBEB"/>
<path d="M298.098 311.589H290.277V311.814H298.098V311.589Z" fill="#EBEBEB"/>
<path d="M374.202 300.789H356.931V301.014H374.202V300.789Z" fill="#EBEBEB"/>
<path d="M86.085 302.301H47.214V302.526H86.085V302.301Z" fill="#EBEBEB"/>
<path d="M99.801 302.301H94.104V302.526H99.801V302.301Z" fill="#EBEBEB"/>
<path d="M202.635 306.099H118.323V306.324H202.635V306.099Z" fill="#EBEBEB"/>
<path d="M214.56 254.52H40.77C39.407 254.52 38.0999 253.979 37.1362 253.015C36.1724 252.051 35.631 250.744 35.631 249.381V5.094C35.6429 3.73887 36.1895 2.44327 37.152 1.48923C38.1145 0.535196 39.4148 -5.19533e-05 40.77 3.78229e-09H214.56C215.235 3.7823e-09 215.903 0.132923 216.527 0.391182C217.15 0.649441 217.717 1.02798 218.194 1.50518C218.671 1.98238 219.05 2.5489 219.308 3.17239C219.566 3.79588 219.699 4.46414 219.699 5.139V249.381C219.699 250.056 219.566 250.724 219.308 251.348C219.05 251.971 218.671 252.538 218.194 253.015C217.717 253.492 217.15 253.871 216.527 254.129C215.903 254.387 215.235 254.52 214.56 254.52ZM40.77 0.180001C39.4675 0.18238 38.2189 0.700866 37.2979 1.6219C36.3769 2.54294 35.8584 3.79146 35.856 5.094V249.381C35.8584 250.684 36.3769 251.932 37.2979 252.853C38.2189 253.774 39.4675 254.293 40.77 254.295H214.56C215.863 254.293 217.111 253.774 218.032 252.853C218.953 251.932 219.472 250.684 219.474 249.381V5.094C219.472 3.79146 218.953 2.54294 218.032 1.6219C217.111 0.700866 215.863 0.18238 214.56 0.180001H40.77Z" fill="#EBEBEB"/>
<path d="M409.23 254.52H235.44C234.077 254.52 232.77 253.979 231.806 253.015C230.842 252.051 230.301 250.744 230.301 249.381V5.094C230.313 3.73887 230.86 2.44327 231.822 1.48923C232.784 0.535196 234.085 -5.19533e-05 235.44 3.78229e-09H409.23C410.593 3.78231e-09 411.9 0.541429 412.864 1.50518C413.828 2.46893 414.369 3.77605 414.369 5.139V249.381C414.369 250.744 413.828 252.051 412.864 253.015C411.9 253.979 410.593 254.52 409.23 254.52ZM235.44 0.180001C234.137 0.18238 232.889 0.700866 231.968 1.6219C231.047 2.54294 230.528 3.79146 230.526 5.094V249.381C230.528 250.684 231.047 251.932 231.968 252.853C232.889 253.774 234.137 254.293 235.44 254.295H409.23C410.533 254.293 411.781 253.774 412.702 252.853C413.623 251.932 414.142 250.684 414.144 249.381V5.094C414.142 3.79146 413.623 2.54294 412.702 1.6219C411.781 0.700866 410.533 0.18238 409.23 0.180001H235.44Z" fill="#EBEBEB"/>
<path d="M450 294.66H0V294.885H450V294.66Z" fill="#EBEBEB"/>
<path d="M138.465 130.734C138.45 125.829 137.469 120.975 135.579 116.449C133.688 111.923 130.925 107.814 127.446 104.357C123.967 100.899 119.841 98.1599 115.304 96.2966C110.767 94.4332 105.907 93.4817 101.002 93.4965C96.0976 93.5113 91.2437 94.492 86.7178 96.3827C82.192 98.2733 78.0828 101.037 74.625 104.516C67.6416 111.541 63.7352 121.053 63.765 130.959C63.765 134.415 63.765 137.871 63.765 141.318V280.251C63.765 284.067 63.315 288.198 63.765 291.996C63.7785 292.173 63.7785 292.35 63.765 292.527C63.7668 292.654 63.7935 292.78 63.8438 292.896C63.8941 293.013 63.9668 293.119 64.0579 293.207C64.149 293.296 64.2567 293.366 64.3747 293.413C64.4928 293.46 64.6189 293.483 64.746 293.481C64.873 293.479 64.9985 293.452 65.1152 293.402C65.2319 293.352 65.3376 293.279 65.4262 293.188C65.5147 293.097 65.5845 292.989 65.6315 292.871C65.6785 292.753 65.7018 292.627 65.7 292.5V135C65.7 129.798 65.799 124.731 67.446 119.7C69.7722 112.591 74.2855 106.4 80.3412 102.01C86.3968 97.62 93.685 95.2561 101.164 95.2561C108.644 95.2561 115.932 97.62 121.988 102.01C128.043 106.4 132.557 112.591 134.883 119.7C136.02 123.262 136.609 126.977 136.629 130.716C136.629 130.963 136.727 131.2 136.902 131.375C137.077 131.549 137.313 131.648 137.56 131.648C137.808 131.648 138.044 131.549 138.219 131.375C138.394 131.2 138.492 130.963 138.492 130.716L138.465 130.734Z" fill="#EBEBEB"/>
<path d="M156.6 135.675C156.659 132.719 156.129 129.78 155.038 127.032C153.948 124.283 152.321 121.779 150.251 119.668C148.181 117.556 145.711 115.878 142.985 114.733C140.259 113.588 137.331 112.998 134.374 112.998C131.418 112.998 128.49 113.588 125.764 114.733C123.038 115.878 120.568 117.556 118.498 119.668C116.428 121.779 114.801 124.283 113.711 127.032C112.62 129.78 112.09 132.719 112.149 135.675H156.6Z" fill="#F0F0F0"/>
<path d="M135.54 113.472C135.336 113.472 135.129 113.472 134.919 113.472C126.567 113.472 119.79 123.426 119.79 135.702H126.153C126.153 123.696 130.32 113.94 135.54 113.472Z" fill="#FAFAFA"/>
<path d="M145.728 135.675H150.057C150.057 124.875 144.783 115.83 137.808 113.859C142.317 115.83 145.728 124.848 145.728 135.675Z" fill="#FAFAFA"/>
<path d="M70.227 228.366H59.391V294.525H70.227V228.366Z" fill="#E0E0E0"/>
<path d="M53.01 290.781H76.5C77.0283 290.781 77.5514 290.885 78.0395 291.087C78.5276 291.289 78.9711 291.586 79.3447 291.959C79.7183 292.333 80.0146 292.776 80.2168 293.264C80.4189 293.753 80.523 294.276 80.523 294.804V294.939H49.023V294.804C49.023 293.743 49.4419 292.725 50.1886 291.972C50.9352 291.219 51.9493 290.791 53.01 290.781Z" fill="#E0E0E0"/>
<path d="M366.957 257.499C366.957 257.499 349.569 249.498 351.711 245.07C352.854 242.703 361.98 247.356 361.98 247.356C361.98 247.356 343.746 231.597 347.868 226.971C350.001 224.586 359.145 232.983 359.145 232.983C359.145 232.983 344.7 208.413 351.243 205.587C357.12 203.04 364.32 227.619 364.32 227.619C364.32 227.619 368.001 212.814 371.655 214.038C377.955 216.153 367.695 240.453 367.695 240.453C367.695 240.453 373.833 230.796 376.407 232.308C381.807 235.512 370.287 256.788 370.287 256.788L366.957 257.499Z" fill="#EBEBEB"/>
<path d="M368.1 257.706C368.1 257.706 355.878 251.55 357.804 248.706C359.046 246.906 365.679 252.792 365.679 252.792L361.908 241.713C361.908 241.713 350.442 233.532 351.486 231.345C352.278 229.671 362.106 239.265 362.106 239.265C362.106 239.265 362.259 233.28 361.575 231.435C359.703 226.332 351.351 213.039 353.313 211.302C355.275 209.565 362.196 225.477 363.267 230.859C363.465 231.876 363.96 234.954 363.96 234.954C363.96 234.954 366.894 218.394 370.737 219.897C375.579 221.796 364.095 239.607 364.095 239.607L366.795 248.157C366.795 248.157 371.52 236.403 374.229 238.005C377.478 239.922 367.929 251.703 367.929 251.703C367.929 251.703 368.829 255.249 368.64 256.428C368.506 256.872 368.325 257.3 368.1 257.706Z" fill="#FAFAFA"/>
<path d="M378.648 257.85C378.648 257.85 399.807 246.402 396.756 241.02C395.127 238.149 384.066 244.719 384.066 244.719C384.066 244.719 405.666 223.47 400.104 217.998C397.242 215.181 386.442 226.458 386.442 226.458C386.442 226.458 402.579 194.463 394.137 191.448C386.559 188.748 379.521 220.149 379.521 220.149C379.521 220.149 373.707 201.879 369.207 203.715C361.44 206.883 376.335 236.529 376.335 236.529C376.335 236.529 367.848 224.919 364.743 227.025C358.2 231.48 374.4 257.229 374.4 257.229L378.648 257.85Z" fill="#E6E6E6"/>
<path d="M377.235 258.21C377.235 258.21 391.122 247.302 391.86 244.224C392.508 241.524 379.881 251.856 379.881 251.856L383.706 237.663C383.706 237.663 396.387 228.438 395.946 223.803C395.541 219.654 383.256 234.603 383.256 234.603C383.256 234.603 382.581 227.106 383.256 224.703C385.191 218.151 394.326 199.827 391.986 198.774C387.423 196.722 381.996 217.278 381.096 224.118C380.925 225.414 380.556 229.311 380.556 229.311C380.556 229.311 372.528 207.765 370.827 210.978C369.027 214.344 380.727 235.161 380.727 235.161L378.027 246.105C378.027 246.105 367.776 230.805 367.884 233.973C367.992 237.141 376.938 250.641 376.938 250.641C376.938 250.641 376.146 255.141 376.434 256.635C376.643 257.187 376.912 257.716 377.235 258.21Z" fill="#FAFAFA"/>
<path d="M376.596 294.939H366.057C364.059 294.938 362.136 294.175 360.681 292.805C359.226 291.436 358.348 289.563 358.227 287.568L356.274 255.825H386.388L384.435 287.568C384.311 289.563 383.432 291.436 381.975 292.806C380.519 294.175 378.595 294.938 376.596 294.939Z" fill="#EBEBEB"/>
<path d="M350.631 127.305H319.626C318.97 127.305 318.438 127.837 318.438 128.493V135.072C318.438 135.728 318.97 136.26 319.626 136.26H350.631C351.287 136.26 351.819 135.728 351.819 135.072V128.493C351.819 127.837 351.287 127.305 350.631 127.305Z" fill="#F5F5F5"/>
<path d="M340.443 138.411H309.438C308.782 138.411 308.25 138.943 308.25 139.599V146.178C308.25 146.834 308.782 147.366 309.438 147.366H340.443C341.099 147.366 341.631 146.834 341.631 146.178V139.599C341.631 138.943 341.099 138.411 340.443 138.411Z" fill="#F5F5F5"/>
<path d="M375.372 138.411H344.367C343.711 138.411 343.179 138.943 343.179 139.599V146.178C343.179 146.834 343.711 147.366 344.367 147.366H375.372C376.028 147.366 376.56 146.834 376.56 146.178V139.599C376.56 138.943 376.028 138.411 375.372 138.411Z" fill="#F0F0F0"/>
<path d="M352.548 63.333H321.543C320.887 63.333 320.355 63.8649 320.355 64.521V71.1C320.355 71.7561 320.887 72.288 321.543 72.288H352.548C353.204 72.288 353.736 71.7561 353.736 71.1V64.521C353.736 63.8649 353.204 63.333 352.548 63.333Z" fill="#F5F5F5"/>
<path d="M342.351 74.439H311.346C310.69 74.439 310.158 74.9709 310.158 75.627V82.206C310.158 82.8621 310.69 83.394 311.346 83.394H342.351C343.007 83.394 343.539 82.8621 343.539 82.206V75.627C343.539 74.9709 343.007 74.439 342.351 74.439Z" fill="#F5F5F5"/>
<path d="M377.289 74.439H346.284C345.628 74.439 345.096 74.9709 345.096 75.627V82.206C345.096 82.8621 345.628 83.394 346.284 83.394H377.289C377.945 83.394 378.477 82.8621 378.477 82.206V75.627C378.477 74.9709 377.945 74.439 377.289 74.439Z" fill="#F0F0F0"/>
<path d="M122.67 61.794H91.665C91.0089 61.794 90.477 62.3259 90.477 62.982V69.561C90.477 70.2171 91.0089 70.749 91.665 70.749H122.67C123.326 70.749 123.858 70.2171 123.858 69.561V62.982C123.858 62.3259 123.326 61.794 122.67 61.794Z" fill="#E6E6E6"/>
<path d="M112.482 72.9H81.477C80.8209 72.9 80.289 73.4319 80.289 74.088V80.667C80.289 81.3231 80.8209 81.855 81.477 81.855H112.482C113.138 81.855 113.67 81.3231 113.67 80.667V74.088C113.67 73.4319 113.138 72.9 112.482 72.9Z" fill="#F5F5F5"/>
<path d="M147.411 72.9H116.406C115.75 72.9 115.218 73.4319 115.218 74.088V80.667C115.218 81.3231 115.75 81.855 116.406 81.855H147.411C148.067 81.855 148.599 81.3231 148.599 80.667V74.088C148.599 73.4319 148.067 72.9 147.411 72.9Z" fill="#F0F0F0"/>
<path d="M112.482 51.291H81.477C80.8209 51.291 80.289 51.8229 80.289 52.479V59.058C80.289 59.7141 80.8209 60.246 81.477 60.246H112.482C113.138 60.246 113.67 59.7141 113.67 59.058V52.479C113.67 51.8229 113.138 51.291 112.482 51.291Z" fill="#F0F0F0"/>
<path d="M350.64 136.269H381.645C382.301 136.269 382.833 135.737 382.833 135.081V128.502C382.833 127.846 382.301 127.314 381.645 127.314H350.64C349.984 127.314 349.452 127.846 349.452 128.502V135.081C349.452 135.737 349.984 136.269 350.64 136.269Z" fill="#F0F0F0"/>
<path d="M225 331.839C321.374 331.839 399.501 327.278 399.501 321.651C399.501 316.024 321.374 311.463 225 311.463C128.626 311.463 50.499 316.024 50.499 321.651C50.499 327.278 128.626 331.839 225 331.839Z" fill="#F5F5F5"/>
<path d="M340.029 186.147C339.564 186.136 339.105 186.252 338.702 186.484C338.299 186.716 337.967 187.054 337.743 187.461C326.817 205.771 322.894 227.42 326.7 248.4C326.758 248.931 327.004 249.423 327.393 249.788C327.783 250.153 328.291 250.366 328.824 250.389C330.48 250.497 359.946 250.389 361.017 250.389C361.454 250.399 361.887 250.312 362.287 250.135C362.686 249.958 363.042 249.696 363.328 249.366C363.614 249.036 363.824 248.646 363.943 248.226C364.061 247.805 364.086 247.364 364.014 246.933C360.562 227.386 364.289 207.25 374.508 190.233C375.768 188.136 373.905 186.174 372.033 186.138C371.178 186.129 341.91 186.183 340.029 186.147Z" fill="#263238"/>
<path opacity="0.1" d="M340.029 186.147C339.564 186.136 339.105 186.252 338.702 186.484C338.299 186.716 337.967 187.054 337.743 187.461C326.817 205.771 322.894 227.42 326.7 248.4C326.758 248.931 327.004 249.423 327.393 249.788C327.783 250.153 328.291 250.366 328.824 250.389C330.48 250.497 359.946 250.389 361.017 250.389C361.454 250.399 361.887 250.312 362.287 250.135C362.686 249.958 363.042 249.696 363.328 249.366C363.614 249.036 363.824 248.646 363.943 248.226C364.061 247.805 364.086 247.364 364.014 246.933C360.562 227.386 364.289 207.25 374.508 190.233C375.768 188.136 373.905 186.174 372.033 186.138C371.178 186.129 341.91 186.183 340.029 186.147Z" fill="white"/>
<path d="M364.014 246.906C360.562 227.359 364.289 207.223 374.508 190.206C376.308 187.155 371.574 184.383 369.747 187.425C358.814 205.746 354.888 227.407 358.695 248.4C359.325 251.892 364.644 250.416 364.014 246.942V246.906Z" fill="#263238"/>
<path d="M277.245 245.304C284.017 243.587 290.961 242.633 297.945 242.46C305.145 242.28 331.965 242.46 338.346 242.46C346.122 242.451 353.868 243.415 361.404 245.331C366.138 246.537 364.68 253.377 360.405 253.431C360.027 253.431 278.847 253.431 278.505 253.431C274.041 253.62 272.412 246.537 277.245 245.304Z" fill="#263238"/>
<path d="M359.172 253.278C345.481 249.804 331.139 249.804 317.448 253.278C312.291 254.592 310.095 246.618 315.252 245.304C330.384 241.461 346.236 241.461 361.368 245.304C366.516 246.618 364.338 254.601 359.172 253.278Z" fill="#263238"/>
<path opacity="0.1" d="M359.172 253.278C345.481 249.804 331.139 249.804 317.448 253.278C312.291 254.592 310.095 246.618 315.252 245.304C330.384 241.461 346.236 241.461 361.368 245.304C366.516 246.618 364.338 254.601 359.172 253.278Z" fill="white"/>
<path d="M317.844 257.283C310.113 257.283 302.328 257.004 294.597 257.283C282.285 257.733 283.059 270.189 282.438 279.045C281.799 288.216 281.034 297.387 280.512 306.567C280.17 312.597 283.599 317.367 289.944 317.655C292.977 317.772 296.046 317.655 299.088 317.655H326.502C329.031 317.655 329.04 321.579 326.502 321.579H299.088C295.83 321.579 292.509 321.75 289.251 321.579C285.881 321.43 282.692 320.011 280.326 317.606C277.96 315.202 276.593 311.991 276.498 308.619C276.264 299.538 277.74 290.142 278.37 281.097C279 272.052 277.875 260.397 287.244 255.24C291.879 252.675 297.585 253.386 302.697 253.386H317.844C320.373 253.386 320.373 257.31 317.844 257.31V257.283Z" fill="#263238"/>
<g opacity="0.5">
<path d="M317.844 257.283C310.113 257.283 302.328 257.004 294.597 257.283C282.285 257.733 283.059 270.189 282.438 279.045C281.799 288.216 281.034 297.387 280.512 306.567C280.17 312.597 283.599 317.367 289.944 317.655C292.977 317.772 296.046 317.655 299.088 317.655H326.502C329.031 317.655 329.04 321.579 326.502 321.579H299.088C295.83 321.579 292.509 321.75 289.251 321.579C285.881 321.43 282.692 320.011 280.326 317.606C277.96 315.202 276.593 311.991 276.498 308.619C276.264 299.538 277.74 290.142 278.37 281.097C279 272.052 277.875 260.397 287.244 255.24C291.879 252.675 297.585 253.386 302.697 253.386H317.844C320.373 253.386 320.373 257.31 317.844 257.31V257.283Z" fill="white"/>
</g>
<g opacity="0.2">
<path d="M317.844 257.283C310.113 257.283 302.328 257.004 294.597 257.283C282.285 257.733 283.059 270.189 282.438 279.045C281.799 288.216 281.034 297.387 280.512 306.567C280.17 312.597 283.599 317.367 289.944 317.655C292.977 317.772 296.046 317.655 299.088 317.655H326.502C329.031 317.655 329.04 321.579 326.502 321.579H299.088C295.83 321.579 292.509 321.75 289.251 321.579C285.881 321.43 282.692 320.011 280.326 317.606C277.96 315.202 276.593 311.991 276.498 308.619C276.264 299.538 277.74 290.142 278.37 281.097C279 272.052 277.875 260.397 287.244 255.24C291.879 252.675 297.585 253.386 302.697 253.386H317.844C320.373 253.386 320.373 257.31 317.844 257.31V257.283Z" fill="black"/>
</g>
<path opacity="0.2" d="M287.244 255.213C291.879 252.648 297.585 253.359 302.697 253.359H317.844C320.373 253.359 320.373 257.283 317.844 257.283C310.113 257.283 302.328 257.004 294.597 257.283C292.498 257.296 290.439 257.854 288.621 258.903H282.87C284.058 257.385 285.547 256.128 287.244 255.213Z" fill="black"/>
<path d="M355.329 257.283C347.589 257.283 339.804 257.004 332.073 257.283C319.77 257.733 320.544 270.189 319.923 279.045C319.284 288.216 318.519 297.387 317.997 306.567C317.655 312.597 321.084 317.367 327.42 317.655C330.462 317.772 333.531 317.655 336.573 317.655H363.987C366.516 317.655 366.516 321.579 363.987 321.579H336.6C333.333 321.579 330.021 321.75 326.763 321.579C323.392 321.432 320.202 320.014 317.836 317.609C315.47 315.204 314.102 311.992 314.01 308.619C313.767 299.538 315.243 290.142 315.882 281.097C316.521 272.052 315.378 260.397 324.747 255.24C329.391 252.675 335.097 253.386 340.2 253.386H355.356C357.885 253.386 357.885 257.31 355.356 257.31L355.329 257.283Z" fill="#263238"/>
<g opacity="0.5">
<path d="M355.329 257.283C347.589 257.283 339.804 257.004 332.073 257.283C319.77 257.733 320.544 270.189 319.923 279.045C319.284 288.216 318.519 297.387 317.997 306.567C317.655 312.597 321.084 317.367 327.42 317.655C330.462 317.772 333.531 317.655 336.573 317.655H363.987C366.516 317.655 366.516 321.579 363.987 321.579H336.6C333.333 321.579 330.021 321.75 326.763 321.579C323.392 321.432 320.202 320.014 317.836 317.609C315.47 315.204 314.102 311.992 314.01 308.619C313.767 299.538 315.243 290.142 315.882 281.097C316.521 272.052 315.378 260.397 324.747 255.24C329.391 252.675 335.097 253.386 340.2 253.386H355.356C357.885 253.386 357.885 257.31 355.356 257.31L355.329 257.283Z" fill="white"/>
</g>
<path opacity="0.2" d="M324.72 255.213C329.364 252.648 335.07 253.359 340.173 253.359H355.329C357.858 253.359 357.858 257.283 355.329 257.283C347.589 257.283 339.804 257.004 332.073 257.283C329.977 257.297 327.921 257.855 326.106 258.903H320.346C321.538 257.389 323.027 256.133 324.72 255.213Z" fill="black"/>
<path d="M288.36 181.134L290.088 169.74V161.262C290.088 161.262 293.958 158.949 293.526 157.59C292.932 155.682 286.839 155.115 286.839 155.115C286.839 155.115 284.139 156.582 283.743 157.887C283.023 160.425 285.714 168.048 285.714 168.048L282.96 178.947L288.36 181.134Z" fill="#CE7A63"/>
<path opacity="0.1" d="M288.36 181.134L290.088 169.74V161.262C290.088 161.262 293.958 158.949 293.526 157.59C292.932 155.682 286.839 155.115 286.839 155.115C286.839 155.115 284.139 156.582 283.743 157.887C283.023 160.425 285.714 168.048 285.714 168.048L282.96 178.947L288.36 181.134Z" fill="black"/>
<path d="M286.56 288.639L291.411 309.771L285.39 312.111L276.714 290.853L286.56 288.639Z" fill="#CE7A63"/>
<path opacity="0.1" d="M276.714 290.844L282.564 305.19L289.98 303.534L286.56 288.639L276.714 290.844Z" fill="black"/>
<path d="M285.498 311.049L290.97 308.124C291.086 308.062 291.22 308.041 291.349 308.066C291.479 308.09 291.596 308.159 291.681 308.259L295.587 312.759C295.671 312.854 295.736 312.964 295.777 313.084C295.819 313.204 295.836 313.331 295.827 313.457C295.819 313.584 295.785 313.708 295.729 313.821C295.672 313.934 295.593 314.035 295.497 314.118C295.448 314.164 295.394 314.203 295.335 314.235C293.04 315.423 290.943 316.386 288.135 317.916C284.787 319.716 285.849 319.662 281.952 321.831C279.594 323.136 277.713 320.679 278.649 320.031C282.933 316.98 283.5 314.856 284.391 312.264C284.598 311.737 284.992 311.304 285.498 311.049Z" fill="#263238"/>
<path d="M335.403 223.074L305.811 221.445C305.811 221.445 256.644 229.131 257.337 242.883C258.03 256.635 278.1 299.97 278.1 299.97L289.8 296.712C289.8 296.712 280.863 253.134 275.031 245.916C275.031 245.916 311.751 241.605 320.931 239.157C326.016 237.807 338.202 240.084 335.403 223.074Z" fill="#0144D5"/>
<path opacity="0.1" d="M280.017 245.313C279.838 241.234 280.612 237.17 282.276 233.442C284.976 227.268 307.521 223.542 318.276 222.129L335.376 223.074C338.175 240.084 325.989 237.807 320.931 239.157C313.866 241.047 290.367 244.044 280.017 245.313Z" fill="black"/>
<path d="M306.666 294.462L307.44 316.134L300.915 316.44L296.577 294.768L306.666 294.462Z" fill="#CE7A63"/>
<path opacity="0.1" d="M299.313 308.43L307.152 308.142L306.666 294.462L296.577 294.768L299.313 308.43Z" fill="black"/>
<path d="M301.383 314.469L307.683 314.604C307.817 314.605 307.946 314.653 308.049 314.738C308.152 314.823 308.223 314.941 308.25 315.072L309.465 321.039C309.491 321.165 309.492 321.296 309.468 321.423C309.444 321.55 309.395 321.671 309.324 321.778C309.253 321.886 309.161 321.979 309.054 322.051C308.947 322.124 308.827 322.174 308.7 322.2H308.493C305.865 322.11 303.525 321.921 300.249 321.867C296.379 321.795 297.351 322.272 292.806 322.254C290.061 322.254 289.62 319.122 290.781 318.987C296.109 318.42 297.675 316.818 299.781 314.955C300.236 314.599 300.807 314.425 301.383 314.469Z" fill="#263238"/>
<path d="M327.483 223.074C327.483 223.074 287.883 224.478 285.534 236.574C283.185 248.67 296.487 302.985 296.487 302.985H308.376C308.376 302.985 307.899 249.075 302.976 244.035C302.976 244.035 332.001 249.156 340.623 241.749C346.788 236.457 343.062 223.056 343.062 223.056L327.483 223.074Z" fill="#0144D5"/>
<path d="M290.745 294.147L275.985 298.269L278.685 303.939L292.14 300.6L290.745 294.147Z" fill="#0144D5"/>
<path opacity="0.3" d="M290.745 294.147L275.985 298.269L278.685 303.939L292.14 300.6L290.745 294.147Z" fill="white"/>
<path d="M309.537 299.979L294.624 300.672L296.028 306.612L309.537 305.919V299.979Z" fill="#0144D5"/>
<path opacity="0.3" d="M309.537 299.979L294.624 300.672L296.028 306.612L309.537 305.919V299.979Z" fill="white"/>
<path d="M291.429 181.71L287.154 191.7L289.746 175.392L284.121 174.339C284.121 174.339 276.192 200.592 282.321 202.788C288.729 205.092 295.821 193.347 296.577 188.325C296.901 186.3 295.857 179.307 291.429 181.71Z" fill="#0144D5"/>
<path opacity="0.6" d="M291.429 181.71L287.154 191.7L289.746 175.392L284.121 174.339C284.121 174.339 276.192 200.592 282.321 202.788C288.729 205.092 295.821 193.347 296.577 188.325C296.901 186.3 295.857 179.307 291.429 181.71Z" fill="white"/>
<path d="M283.995 173.277L290.34 174.357L289.944 177.885L282.645 176.607L283.995 173.277Z" fill="#0144D5"/>
<path opacity="0.3" d="M283.995 173.277L290.34 174.357L289.944 177.885L282.645 176.607L283.995 173.277Z" fill="white"/>
<path opacity="0.2" d="M296.451 185.589L295.452 183.132H293.112L291.96 184.743C291.719 188.67 292.049 192.611 292.941 196.443C294.655 194.002 295.878 191.251 296.541 188.343C296.646 187.426 296.616 186.498 296.451 185.589Z" fill="black"/>
<path d="M304.47 221.616C304.47 221.616 309.87 223.929 343.341 223.218C343.341 223.218 341.64 196.074 325.296 171.468C325.296 171.468 301.482 163.71 291.429 181.71C292.742 190.243 295.767 198.423 300.321 205.758C307.629 217.035 304.47 221.616 304.47 221.616Z" fill="#0144D5"/>
<path opacity="0.7" d="M304.47 221.616C304.47 221.616 309.87 223.929 343.341 223.218C343.341 223.218 341.64 196.074 325.296 171.468C325.296 171.468 301.482 163.71 291.429 181.71C292.742 190.243 295.767 198.423 300.321 205.758C307.629 217.035 304.47 221.616 304.47 221.616Z" fill="white"/>
<path opacity="0.2" d="M307.008 180.657C305.379 181.854 302.679 180.657 302.679 180.657C302.679 180.657 300.879 183.654 298.476 182.007C297.441 181.253 296.53 180.342 295.776 179.307C296.555 180.832 297.654 182.17 298.998 183.231C301.392 184.887 303.192 181.881 303.192 181.881C303.192 181.881 305.892 183.087 307.521 181.881C308.691 180.981 309.222 175.518 309.438 172.503C308.961 175.5 308.061 179.874 307.008 180.657Z" fill="black"/>
<path d="M301.428 166.077C301.428 166.077 301.212 168.588 306.387 170.352C306.387 170.352 303.489 179.532 302.202 179.604C300.915 179.676 296.01 175.446 296.01 175.446L296.631 172.845L301.428 166.077Z" fill="#CE7A63"/>
<path opacity="0.1" d="M301.428 166.077C301.428 166.077 301.212 168.588 306.387 170.352C306.387 170.352 303.489 179.532 302.202 179.604C300.915 179.676 296.01 175.446 296.01 175.446L296.631 172.845L301.428 166.077Z" fill="black"/>
<path d="M295.344 174.6L302.382 179.352L306.432 168.102L309.879 169.848C309.879 169.848 308.628 179.505 306.999 180.702C305.37 181.899 302.679 180.702 302.679 180.702C302.679 180.702 300.879 183.699 298.476 182.052C296.847 180.802 295.495 179.226 294.507 177.426L295.344 174.6Z" fill="#0144D5"/>
<path opacity="0.7" d="M295.344 174.6L302.382 179.352L306.432 168.102L309.879 169.848C309.879 169.848 308.628 179.505 306.999 180.702C305.37 181.899 302.679 180.702 302.679 180.702C302.679 180.702 300.879 183.699 298.476 182.052C296.847 180.802 295.495 179.226 294.507 177.426L295.344 174.6Z" fill="white"/>
<path d="M300.771 157.428C301.491 163.998 302.256 167.796 299.574 171.828C298.718 173.14 297.52 174.192 296.109 174.872C294.699 175.552 293.129 175.833 291.57 175.684C290.011 175.536 288.522 174.964 287.264 174.031C286.007 173.097 285.029 171.837 284.436 170.388C282.042 164.853 281.268 155.088 287.136 151.146C288.381 150.268 289.835 149.733 291.352 149.595C292.869 149.457 294.396 149.72 295.78 150.358C297.163 150.996 298.354 151.987 299.233 153.231C300.112 154.475 300.649 155.929 300.789 157.446L300.771 157.428Z" fill="#CE7A63"/>
<path d="M291.321 161.289C291.42 161.811 291.204 162.297 290.853 162.342C290.502 162.387 290.169 162.036 290.07 161.514C289.971 160.992 290.178 160.497 290.538 160.461C290.898 160.425 291.231 160.758 291.321 161.289Z" fill="#263238"/>
<path d="M285.399 162.522C285.489 163.053 285.291 163.53 284.931 163.575C284.571 163.62 284.238 163.278 284.139 162.747C284.04 162.216 284.256 161.739 284.616 161.694C284.976 161.649 285.3 162 285.399 162.522Z" fill="#263238"/>
<path d="M292.815 158.976C292.866 158.969 292.916 158.951 292.959 158.922C293.016 158.865 293.048 158.787 293.048 158.706C293.048 158.625 293.016 158.547 292.959 158.49C292.601 158.14 292.163 157.883 291.683 157.742C291.203 157.601 290.695 157.58 290.205 157.68C290.127 157.703 290.06 157.755 290.019 157.825C289.977 157.895 289.963 157.978 289.98 158.058C289.989 158.098 290.007 158.136 290.031 158.169C290.055 158.202 290.086 158.23 290.121 158.251C290.157 158.272 290.196 158.285 290.236 158.291C290.277 158.296 290.318 158.294 290.358 158.283C290.738 158.207 291.131 158.223 291.503 158.329C291.876 158.436 292.218 158.63 292.5 158.895C292.538 158.939 292.589 158.97 292.645 158.984C292.701 158.999 292.76 158.996 292.815 158.976Z" fill="#263238"/>
<path d="M282.501 161.001C282.549 160.984 282.592 160.955 282.627 160.917C282.661 160.88 282.686 160.834 282.699 160.785C282.793 160.389 282.978 160.02 283.239 159.708C283.499 159.396 283.829 159.148 284.202 158.985C284.239 158.965 284.272 158.938 284.298 158.906C284.324 158.873 284.344 158.836 284.356 158.795C284.367 158.755 284.371 158.713 284.366 158.671C284.362 158.63 284.349 158.59 284.328 158.553C284.296 158.495 284.247 158.449 284.187 158.421C284.127 158.394 284.06 158.386 283.995 158.4C283.531 158.591 283.118 158.888 282.789 159.268C282.461 159.648 282.227 160.1 282.105 160.587C282.082 160.666 282.091 160.75 282.13 160.822C282.169 160.895 282.234 160.949 282.312 160.974C282.37 161.003 282.437 161.012 282.501 161.001Z" fill="#263238"/>
<path d="M287.424 162.405C287.073 164.153 286.495 165.847 285.705 167.445C286.112 167.632 286.554 167.728 287.001 167.728C287.448 167.728 287.89 167.632 288.297 167.445L287.424 162.405Z" fill="#BA4D3C"/>
<path d="M304.2 162.396C304.02 163.863 303.29 165.208 302.157 166.158C300.663 167.382 299.232 166.158 299.079 164.358C298.935 162.684 299.556 160.047 301.329 159.543C303.102 159.039 304.38 160.587 304.2 162.396Z" fill="#CE7A63"/>
<path d="M289.602 169.335C289.656 169.974 290.052 170.451 290.502 170.397C290.952 170.343 291.186 169.812 291.114 169.182C291.042 168.552 290.664 168.084 290.214 168.129C289.764 168.174 289.53 168.741 289.602 169.335Z" fill="#263238"/>
<path d="M300.024 162.63C299.389 162.124 298.874 161.484 298.515 160.756C298.155 160.028 297.961 159.23 297.945 158.418C297.756 156.294 295.92 154.026 294.804 152.829C294.57 152.573 294.269 152.386 293.936 152.291C293.602 152.196 293.248 152.195 292.914 152.289C291.239 152.787 289.511 153.089 287.766 153.189C284.877 153.27 285.624 151.695 286.02 151.164C287.298 149.454 289.62 147.618 294.255 148.851C298.89 150.084 303.255 152.109 301.608 161.667L300.024 162.63Z" fill="#263238"/>
<path opacity="0.2" d="M309.879 204.741C313.407 204.741 319.779 198 323.757 190.935C324.815 188.974 325.64 186.896 326.214 184.743C322.092 192.645 314.154 202.806 309.879 202.806C306.009 202.806 303.363 198.306 301.473 192.285C303.129 199.206 305.604 204.741 309.879 204.741Z" fill="black"/>
<path d="M311.832 207.207C311.834 207.432 311.769 207.652 311.645 207.839C311.522 208.027 311.345 208.174 311.138 208.261C310.931 208.348 310.703 208.372 310.482 208.329C310.262 208.287 310.059 208.179 309.899 208.021C309.74 207.863 309.631 207.661 309.586 207.441C309.542 207.22 309.564 206.992 309.649 206.784C309.735 206.576 309.88 206.399 310.067 206.274C310.254 206.149 310.473 206.082 310.698 206.082C310.997 206.082 311.284 206.2 311.497 206.411C311.709 206.622 311.83 206.908 311.832 207.207Z" fill="#0144D5"/>
<path d="M314.298 219.177C314.3 219.402 314.234 219.623 314.111 219.81C313.987 219.998 313.81 220.145 313.602 220.232C313.394 220.319 313.166 220.342 312.945 220.299C312.724 220.255 312.521 220.147 312.362 219.988C312.203 219.829 312.095 219.626 312.051 219.405C312.008 219.184 312.031 218.955 312.118 218.748C312.205 218.54 312.352 218.363 312.54 218.239C312.727 218.115 312.948 218.05 313.173 218.052C313.471 218.052 313.757 218.171 313.968 218.382C314.179 218.592 314.298 218.879 314.298 219.177Z" fill="#0144D5"/>
<g opacity="0.3">
<path d="M311.832 207.207C311.834 207.432 311.769 207.652 311.645 207.839C311.522 208.027 311.345 208.174 311.138 208.261C310.931 208.348 310.703 208.372 310.482 208.329C310.262 208.287 310.059 208.179 309.899 208.021C309.74 207.863 309.631 207.661 309.586 207.441C309.542 207.22 309.564 206.992 309.649 206.784C309.735 206.576 309.88 206.399 310.067 206.274C310.254 206.149 310.473 206.082 310.698 206.082C310.997 206.082 311.284 206.2 311.497 206.411C311.709 206.622 311.83 206.908 311.832 207.207Z" fill="white"/>
<path d="M314.298 219.177C314.3 219.402 314.234 219.623 314.111 219.81C313.987 219.998 313.81 220.145 313.602 220.232C313.394 220.319 313.166 220.342 312.945 220.299C312.724 220.255 312.521 220.147 312.362 219.988C312.203 219.829 312.095 219.626 312.051 219.405C312.008 219.184 312.031 218.955 312.118 218.748C312.205 218.54 312.352 218.363 312.54 218.239C312.727 218.115 312.948 218.05 313.173 218.052C313.471 218.052 313.757 218.171 313.968 218.382C314.179 218.593 314.298 218.879 314.298 219.177Z" fill="white"/>
</g>
<path opacity="0.1" d="M293.607 156.06C293.607 156.06 292.023 157.86 296.145 160.461C296.056 163.268 296.131 166.078 296.37 168.876C296.748 171.387 297.531 174.807 297.531 174.807L302.193 172.89L298.656 159.165L297.756 156.06L295.29 155.376L293.607 156.06Z" fill="black"/>
<path d="M298.8 179.604L297.072 168.21V159.732C297.072 159.732 293.202 157.419 293.634 156.06C294.237 154.152 300.33 153.585 300.33 153.585C300.33 153.585 303.03 155.052 303.417 156.357C304.137 158.895 301.455 166.518 301.455 166.518L304.803 177.174L298.8 179.604Z" fill="#CE7A63"/>
<path opacity="0.1" d="M298.8 179.604L297.072 168.21V159.732C297.072 159.732 293.202 157.419 293.634 156.06C294.237 154.152 300.33 153.585 300.33 153.585C300.33 153.585 303.03 155.052 303.417 156.357C304.137 158.895 301.455 166.518 301.455 166.518L304.803 177.174L298.8 179.604Z" fill="white"/>
<path d="M297.945 175.284C299.664 186.921 302.634 202.806 309.879 202.806C316.071 202.806 329.958 181.503 328.779 176.589C327.321 170.46 322.182 162.81 310.482 190.989L303.48 172.485L297.945 175.284Z" fill="#0144D5"/>
<path opacity="0.6" d="M297.945 175.284C299.664 186.921 302.634 202.806 309.879 202.806C316.071 202.806 329.958 181.503 328.779 176.589C327.321 170.46 322.182 162.81 310.482 190.989L303.48 172.485L297.945 175.284Z" fill="white"/>
<path d="M297.207 174.204L303.579 171.162L305.19 174.654L297.396 177.957L297.207 174.204Z" fill="#0144D5"/>
<path opacity="0.3" d="M297.207 174.204L303.579 171.162L305.19 174.654L297.396 177.957L297.207 174.204Z" fill="white"/>
<path opacity="0.2" d="M287.1 192.294C286.884 193.428 286.38 196.416 287.19 196.083C288 195.75 287.1 193.878 287.1 192.294Z" fill="black"/>
<path d="M197.37 186.507L196.155 185.967C194.508 187.119 191.772 185.427 191.043 184.932L191.106 184.77C191.131 184.713 191.132 184.648 191.111 184.589C191.089 184.53 191.045 184.482 190.989 184.455C190.951 184.431 190.908 184.418 190.863 184.418C190.818 184.418 190.775 184.431 190.737 184.455L190.377 183.33L189.225 182.817L188.928 183.501L189.351 183.69L189 184.5L188.568 184.311L187.938 185.733L188.361 185.922L188.028 186.669L187.605 186.48L187.299 187.164L188.442 187.677L189.522 187.191C189.523 187.237 189.537 187.282 189.563 187.32C189.588 187.358 189.624 187.388 189.666 187.407C189.726 187.432 189.793 187.432 189.853 187.409C189.914 187.385 189.962 187.34 189.99 187.281L190.053 187.119C190.953 187.335 193.995 188.253 194.238 190.251L195.444 190.791L195.705 191.475L198.036 186.282L197.37 186.507Z" fill="#263238"/>
<path d="M198 197.352L197.46 196.389C195.795 196.389 194.76 193.896 194.553 193.194L194.67 193.131C194.717 193.104 194.753 193.06 194.768 193.008C194.783 192.956 194.777 192.9 194.751 192.852C194.732 192.819 194.704 192.792 194.671 192.775C194.637 192.757 194.6 192.75 194.562 192.753H194.49C194.55 192.468 194.527 192.172 194.423 191.9C194.32 191.628 194.139 191.392 193.905 191.22C193.67 191.047 193.39 190.947 193.099 190.93C192.809 190.913 192.519 190.98 192.266 191.124C192.013 191.267 191.806 191.481 191.671 191.739C191.536 191.997 191.479 192.288 191.505 192.578C191.532 192.868 191.642 193.144 191.822 193.373C192.002 193.602 192.244 193.774 192.519 193.869L192.456 193.923C192.433 193.953 192.421 193.989 192.421 194.027C192.421 194.064 192.433 194.1 192.456 194.13C192.483 194.177 192.527 194.213 192.579 194.228C192.631 194.243 192.687 194.237 192.735 194.211L192.861 194.139C193.329 194.706 194.94 196.839 194.121 198.27L194.661 199.224L194.499 199.809L198.594 197.487L198 197.352Z" fill="#0144D5"/>
<path opacity="0.8" d="M198 197.352L197.46 196.389C195.795 196.389 194.76 193.896 194.553 193.194L194.67 193.131C194.717 193.104 194.753 193.06 194.768 193.008C194.783 192.956 194.777 192.9 194.751 192.852C194.732 192.819 194.704 192.792 194.671 192.775C194.637 192.757 194.6 192.75 194.562 192.753H194.49C194.55 192.468 194.527 192.172 194.423 191.9C194.32 191.628 194.139 191.392 193.905 191.22C193.67 191.047 193.39 190.947 193.099 190.93C192.809 190.913 192.519 190.98 192.266 191.124C192.013 191.267 191.806 191.481 191.671 191.739C191.536 191.997 191.479 192.288 191.505 192.578C191.532 192.868 191.642 193.144 191.822 193.373C192.002 193.602 192.244 193.774 192.519 193.869L192.456 193.923C192.433 193.953 192.421 193.989 192.421 194.027C192.421 194.064 192.433 194.1 192.456 194.13C192.483 194.177 192.527 194.213 192.579 194.228C192.631 194.243 192.687 194.237 192.735 194.211L192.861 194.139C193.329 194.706 194.94 196.839 194.121 198.27L194.661 199.224L194.499 199.809L198.594 197.487L198 197.352Z" fill="white"/>
<path d="M322.452 203.364H133.11V210.168H322.452V203.364Z" fill="#263238"/>
<path opacity="0.5" d="M322.452 203.364H133.11V210.168H322.452V203.364Z" fill="white"/>
<path opacity="0.3" d="M201.915 203.364H133.11V210.168H201.915V203.364Z" fill="white"/>
<path d="M249.165 210.159H206.388V319.437H249.165V210.159Z" fill="#263238"/>
<path opacity="0.1" d="M249.165 210.159H206.388V319.437H249.165V210.159Z" fill="white"/>
<path opacity="0.1" d="M223.65 210.159H206.388V319.437H223.65V210.159Z" fill="white"/>
<path d="M276.705 315.261H178.848V321.48H276.705V315.261Z" fill="#263238"/>
<path opacity="0.4" d="M276.705 315.261H178.848V321.48H276.705V315.261Z" fill="white"/>
<path opacity="0.2" d="M214.407 315.261H178.848V321.48H214.407V315.261Z" fill="white"/>
<path d="M277.524 199.215H178.029V203.355H277.524V199.215Z" fill="#0144D5"/>
<path opacity="0.3" d="M277.524 199.215H178.029V203.355H277.524V199.215Z" fill="white"/>
<path opacity="0.2" d="M227.781 199.215H178.029V203.355H227.781V199.215Z" fill="white"/>
<path d="M255.231 198.702V197.37C253.503 196.335 253.926 193.158 254.079 192.276H254.259C254.323 192.276 254.385 192.25 254.431 192.205C254.476 192.159 254.502 192.097 254.502 192.033C254.501 191.988 254.488 191.945 254.464 191.907C254.44 191.869 254.407 191.838 254.367 191.817L255.267 191.034V189.774H254.52V190.242H253.701V189.774H252.144V190.242H251.325V189.774H250.578V191.034L251.478 191.817C251.438 191.838 251.405 191.869 251.381 191.907C251.357 191.945 251.344 191.988 251.343 192.033C251.343 192.097 251.369 192.159 251.414 192.205C251.46 192.25 251.522 192.276 251.586 192.276H251.757C251.91 193.176 252.342 196.335 250.614 197.37V198.702L250.092 199.215H255.78L255.231 198.702Z" fill="#263238"/>
<path d="M233.676 198.702V197.37C231.948 196.335 232.371 193.158 232.524 192.276H232.704C232.768 192.276 232.83 192.25 232.876 192.205C232.921 192.159 232.947 192.097 232.947 192.033C232.946 191.988 232.933 191.945 232.909 191.907C232.885 191.869 232.852 191.838 232.812 191.817L233.712 191.034V189.774H232.974V190.242H232.155V189.774H230.598V190.242H229.779V189.774H229.032V191.034L229.932 191.817C229.892 191.838 229.859 191.869 229.835 191.907C229.811 191.945 229.798 191.988 229.797 192.033C229.797 192.097 229.823 192.159 229.868 192.205C229.914 192.25 229.976 192.276 230.04 192.276H230.211C230.364 193.176 230.796 196.335 229.068 197.37V198.702L228.546 199.215H234.234L233.676 198.702Z" fill="#0144D5"/>
<path opacity="0.7" d="M233.676 198.702V197.37C231.948 196.335 232.371 193.158 232.524 192.276H232.704C232.768 192.276 232.83 192.25 232.876 192.205C232.921 192.159 232.947 192.097 232.947 192.033C232.946 191.988 232.933 191.945 232.909 191.907C232.885 191.869 232.852 191.838 232.812 191.817L233.712 191.034V189.774H232.974V190.242H232.155V189.774H230.598V190.242H229.779V189.774H229.032V191.034L229.932 191.817C229.892 191.838 229.859 191.869 229.835 191.907C229.811 191.945 229.798 191.988 229.797 192.033C229.797 192.097 229.823 192.159 229.868 192.205C229.914 192.25 229.976 192.276 230.04 192.276H230.211C230.364 193.176 230.796 196.335 229.068 197.37V198.702L228.546 199.215H234.234L233.676 198.702Z" fill="white"/>
<path d="M262.989 190.224L262.575 189.801C262.626 189.856 262.655 189.928 262.655 190.003C262.655 190.079 262.626 190.151 262.575 190.206C262.549 190.234 262.518 190.255 262.483 190.27C262.448 190.285 262.41 190.293 262.372 190.293C262.335 190.293 262.297 190.285 262.262 190.27C262.227 190.255 262.196 190.234 262.17 190.206L262.584 190.629C262.639 190.68 262.711 190.709 262.786 190.709C262.862 190.709 262.934 190.68 262.989 190.629C263.016 190.603 263.038 190.572 263.053 190.537C263.068 190.502 263.076 190.464 263.076 190.427C263.076 190.389 263.068 190.351 263.053 190.316C263.038 190.281 263.016 190.25 262.989 190.224Z" fill="#263238"/>
<path opacity="0.2" d="M262.989 190.224L262.575 189.801C262.626 189.856 262.655 189.928 262.655 190.003C262.655 190.079 262.626 190.151 262.575 190.206C262.549 190.234 262.518 190.255 262.483 190.27C262.448 190.285 262.41 190.293 262.372 190.293C262.335 190.293 262.297 190.285 262.262 190.27C262.227 190.255 262.196 190.234 262.17 190.206L262.584 190.629C262.639 190.68 262.711 190.709 262.786 190.709C262.862 190.709 262.934 190.68 262.989 190.629C263.016 190.603 263.038 190.572 263.053 190.537C263.068 190.502 263.076 190.464 263.076 190.427C263.076 190.389 263.068 190.351 263.053 190.316C263.038 190.281 263.016 190.25 262.989 190.224Z" fill="white"/>
<path d="M265.05 198.702V197.37C263.322 196.335 263.745 193.158 263.898 192.276H264.078C264.142 192.276 264.204 192.25 264.25 192.205C264.295 192.159 264.321 192.097 264.321 192.033C264.32 191.988 264.307 191.945 264.283 191.907C264.259 191.869 264.226 191.838 264.186 191.817H263.286C263.505 191.743 263.694 191.6 263.827 191.411C263.96 191.222 264.029 190.995 264.024 190.764C264.024 190.044 262.71 188.82 262.71 188.82C262.71 188.82 262.449 189.063 262.161 189.396L262.98 190.224C263.008 190.25 263.029 190.281 263.044 190.316C263.059 190.351 263.067 190.389 263.067 190.426C263.067 190.464 263.059 190.502 263.044 190.537C263.029 190.572 263.008 190.603 262.98 190.629C262.925 190.68 262.853 190.709 262.777 190.709C262.702 190.709 262.63 190.68 262.575 190.629L261.801 189.855C261.585 190.111 261.445 190.423 261.396 190.755C261.39 190.988 261.46 191.216 261.595 191.405C261.729 191.595 261.922 191.736 262.143 191.808H261.243C261.203 191.829 261.17 191.86 261.146 191.898C261.122 191.936 261.109 191.979 261.108 192.024C261.108 192.088 261.134 192.15 261.179 192.196C261.225 192.241 261.287 192.267 261.351 192.267H261.522C261.675 193.167 262.107 196.326 260.379 197.361V198.693L259.857 199.206H265.545L265.05 198.702Z" fill="#263238"/>
<path d="M238.5 190.224L238.086 189.801C238.137 189.856 238.166 189.928 238.166 190.003C238.166 190.079 238.137 190.151 238.086 190.206C238.06 190.234 238.029 190.255 237.994 190.27C237.959 190.285 237.921 190.293 237.884 190.293C237.846 190.293 237.808 190.285 237.773 190.27C237.738 190.255 237.707 190.234 237.681 190.206L238.095 190.629C238.15 190.68 238.222 190.709 238.297 190.709C238.373 190.709 238.445 190.68 238.5 190.629C238.528 190.603 238.549 190.572 238.564 190.537C238.579 190.502 238.587 190.464 238.587 190.427C238.587 190.389 238.579 190.351 238.564 190.316C238.549 190.281 238.528 190.25 238.5 190.224Z" fill="#0144D5"/>
<path opacity="0.2" d="M238.5 190.224L238.086 189.801C238.137 189.856 238.166 189.928 238.166 190.003C238.166 190.079 238.137 190.151 238.086 190.206C238.06 190.234 238.029 190.255 237.994 190.27C237.959 190.285 237.921 190.293 237.884 190.293C237.846 190.293 237.808 190.285 237.773 190.27C237.738 190.255 237.707 190.234 237.681 190.206L238.095 190.629C238.15 190.68 238.222 190.709 238.297 190.709C238.373 190.709 238.445 190.68 238.5 190.629C238.528 190.603 238.549 190.572 238.564 190.537C238.579 190.502 238.587 190.464 238.587 190.427C238.587 190.389 238.579 190.351 238.564 190.316C238.549 190.281 238.528 190.25 238.5 190.224Z" fill="white"/>
<path d="M240.57 198.702V197.37C238.842 196.335 239.265 193.158 239.427 192.276H239.598C239.662 192.276 239.724 192.25 239.77 192.205C239.815 192.159 239.841 192.097 239.841 192.033C239.84 191.988 239.827 191.945 239.803 191.907C239.779 191.869 239.746 191.838 239.706 191.817H238.806C239.025 191.743 239.214 191.6 239.347 191.411C239.48 191.222 239.549 190.995 239.544 190.764C239.544 190.044 238.23 188.82 238.23 188.82C238.23 188.82 237.969 189.063 237.681 189.396L238.5 190.224C238.528 190.25 238.549 190.281 238.564 190.316C238.579 190.351 238.587 190.389 238.587 190.426C238.587 190.464 238.579 190.502 238.564 190.537C238.549 190.572 238.528 190.603 238.5 190.629C238.445 190.68 238.373 190.709 238.298 190.709C238.222 190.709 238.15 190.68 238.095 190.629L237.321 189.855C237.108 190.112 236.971 190.424 236.925 190.755C236.919 190.986 236.987 191.214 237.12 191.403C237.253 191.593 237.443 191.735 237.663 191.808H236.763C236.723 191.829 236.69 191.86 236.666 191.898C236.642 191.936 236.629 191.979 236.628 192.024C236.628 192.088 236.654 192.15 236.699 192.196C236.745 192.241 236.807 192.267 236.871 192.267H237.042C237.195 193.167 237.627 196.326 235.899 197.361V198.693L235.377 199.206H241.065L240.57 198.702Z" fill="#0144D5"/>
<path opacity="0.7" d="M240.57 198.702V197.37C238.842 196.335 239.265 193.158 239.427 192.276H239.598C239.662 192.276 239.724 192.25 239.77 192.205C239.815 192.159 239.841 192.097 239.841 192.033C239.84 191.988 239.827 191.945 239.803 191.907C239.779 191.869 239.746 191.838 239.706 191.817H238.806C239.025 191.743 239.214 191.6 239.347 191.411C239.48 191.222 239.549 190.995 239.544 190.764C239.544 190.044 238.23 188.82 238.23 188.82C238.23 188.82 237.969 189.063 237.681 189.396L238.5 190.224C238.528 190.25 238.549 190.281 238.564 190.316C238.579 190.351 238.587 190.389 238.587 190.426C238.587 190.464 238.579 190.502 238.564 190.537C238.549 190.572 238.528 190.603 238.5 190.629C238.445 190.68 238.373 190.709 238.298 190.709C238.222 190.709 238.15 190.68 238.095 190.629L237.321 189.855C237.108 190.112 236.971 190.424 236.925 190.755C236.919 190.986 236.987 191.214 237.12 191.403C237.253 191.593 237.443 191.735 237.663 191.808H236.763C236.723 191.829 236.69 191.86 236.666 191.898C236.642 191.936 236.629 191.979 236.628 192.024C236.628 192.088 236.654 192.15 236.699 192.196C236.745 192.241 236.807 192.267 236.871 192.267H237.042C237.195 193.167 237.627 196.326 235.899 197.361V198.693L235.377 199.206H241.065L240.57 198.702Z" fill="white"/>
<path d="M268.425 197.37V198.702L267.903 199.215H273.6L273.087 198.702V197.37C271.359 196.335 273.087 194.382 273.087 192.438C273.087 190.827 271.557 190.683 270.468 190.782L269.568 190.575L269.721 190.881C269.596 190.904 269.473 190.934 269.352 190.971L269.505 191.484C269.169 191.667 268.864 191.904 268.605 192.186C268.344 192.564 268.065 192.366 267.705 192.951C267.345 193.536 267.867 193.698 267.867 193.698C268.506 193.383 267.984 193.824 267.984 193.824C268.573 193.816 269.157 193.725 269.721 193.554C269.883 194.4 270.153 196.335 268.425 197.37Z" fill="#263238"/>
<path d="M246.6 198.783V197.685C245.169 196.83 245.529 194.193 245.655 193.473H245.799C245.851 193.473 245.902 193.452 245.939 193.415C245.976 193.378 245.997 193.328 245.997 193.275C246.002 193.237 245.993 193.199 245.974 193.166C245.954 193.134 245.924 193.109 245.889 193.095H245.808C246.054 192.817 246.192 192.459 246.195 192.087C246.196 191.84 246.137 191.597 246.023 191.378C245.909 191.159 245.743 190.972 245.54 190.831C245.337 190.691 245.103 190.601 244.858 190.572C244.613 190.542 244.365 190.572 244.134 190.659C243.903 190.747 243.697 190.889 243.534 191.074C243.371 191.259 243.255 191.481 243.196 191.721C243.138 191.961 243.139 192.211 243.198 192.45C243.258 192.69 243.376 192.911 243.54 193.095H243.468C243.432 193.108 243.401 193.133 243.38 193.166C243.359 193.198 243.349 193.236 243.351 193.275C243.351 193.302 243.356 193.328 243.367 193.353C243.377 193.378 243.393 193.4 243.412 193.418C243.431 193.437 243.454 193.451 243.479 193.461C243.505 193.47 243.531 193.474 243.558 193.473H243.702C243.828 194.193 244.179 196.83 242.748 197.685V198.783L242.316 199.215H247.032L246.6 198.783Z" fill="#0144D5"/>
<path opacity="0.7" d="M246.6 198.783V197.685C245.169 196.83 245.529 194.193 245.655 193.473H245.799C245.851 193.473 245.902 193.452 245.939 193.415C245.976 193.378 245.997 193.328 245.997 193.275C246.002 193.237 245.993 193.199 245.974 193.166C245.954 193.134 245.924 193.109 245.889 193.095H245.808C246.054 192.817 246.192 192.459 246.195 192.087C246.196 191.84 246.137 191.597 246.023 191.378C245.909 191.159 245.743 190.972 245.54 190.831C245.337 190.691 245.103 190.601 244.858 190.572C244.613 190.542 244.365 190.572 244.134 190.659C243.903 190.747 243.697 190.889 243.534 191.074C243.371 191.259 243.255 191.481 243.196 191.721C243.138 191.961 243.139 192.211 243.198 192.45C243.258 192.69 243.376 192.911 243.54 193.095H243.468C243.432 193.108 243.401 193.133 243.38 193.166C243.359 193.198 243.349 193.236 243.351 193.275C243.351 193.302 243.356 193.328 243.367 193.353C243.377 193.378 243.393 193.4 243.412 193.418C243.431 193.437 243.454 193.451 243.479 193.461C243.505 193.47 243.531 193.474 243.558 193.473H243.702C243.828 194.193 244.179 196.83 242.748 197.685V198.783L242.316 199.215H247.032L246.6 198.783Z" fill="white"/>
<path d="M208.314 198.783V197.685C206.883 196.83 207.243 194.193 207.369 193.473H207.513C207.566 193.473 207.616 193.452 207.653 193.415C207.69 193.378 207.711 193.328 207.711 193.275C207.716 193.237 207.707 193.199 207.688 193.166C207.668 193.134 207.638 193.109 207.603 193.095H207.522C207.768 192.817 207.906 192.459 207.909 192.087C207.925 191.878 207.898 191.668 207.829 191.47C207.76 191.272 207.651 191.091 207.509 190.937C207.366 190.783 207.194 190.66 207.001 190.576C206.809 190.492 206.602 190.449 206.392 190.449C206.183 190.449 205.976 190.492 205.784 190.576C205.591 190.66 205.419 190.783 205.276 190.937C205.134 191.091 205.025 191.272 204.956 191.47C204.887 191.668 204.86 191.878 204.876 192.087C204.875 192.459 205.013 192.819 205.263 193.095H205.182C205.146 193.108 205.115 193.133 205.094 193.166C205.073 193.198 205.063 193.236 205.065 193.275C205.065 193.302 205.07 193.328 205.081 193.353C205.091 193.378 205.107 193.4 205.126 193.418C205.145 193.437 205.168 193.451 205.193 193.461C205.219 193.47 205.245 193.474 205.272 193.473H205.416C205.542 194.193 205.893 196.83 204.462 197.685V198.783L204.039 199.215H208.746L208.314 198.783Z" fill="#0144D5"/>
<path opacity="0.7" d="M208.314 198.783V197.685C206.883 196.83 207.243 194.193 207.369 193.473H207.513C207.566 193.473 207.616 193.452 207.653 193.415C207.69 193.378 207.711 193.328 207.711 193.275C207.716 193.237 207.707 193.199 207.688 193.166C207.668 193.134 207.638 193.109 207.603 193.095H207.522C207.768 192.817 207.906 192.459 207.909 192.087C207.925 191.878 207.898 191.668 207.829 191.47C207.76 191.272 207.651 191.091 207.509 190.937C207.366 190.783 207.194 190.66 207.001 190.576C206.809 190.492 206.602 190.449 206.392 190.449C206.183 190.449 205.976 190.492 205.784 190.576C205.591 190.66 205.419 190.783 205.276 190.937C205.134 191.091 205.025 191.272 204.956 191.47C204.887 191.668 204.86 191.878 204.876 192.087C204.875 192.459 205.013 192.819 205.263 193.095H205.182C205.146 193.108 205.115 193.133 205.094 193.166C205.073 193.198 205.063 193.236 205.065 193.275C205.065 193.302 205.07 193.328 205.081 193.353C205.091 193.378 205.107 193.4 205.126 193.418C205.145 193.437 205.168 193.451 205.193 193.461C205.219 193.47 205.245 193.474 205.272 193.473H205.416C205.542 194.193 205.893 196.83 204.462 197.685V198.783L204.039 199.215H208.746L208.314 198.783Z" fill="white"/>
<path d="M224.892 198.783V197.685C223.461 196.83 223.812 194.193 223.938 193.473H224.1C224.127 193.474 224.153 193.47 224.179 193.461C224.204 193.451 224.227 193.437 224.246 193.418C224.265 193.4 224.281 193.378 224.291 193.353C224.302 193.328 224.307 193.302 224.307 193.275C224.309 193.236 224.299 193.198 224.278 193.166C224.257 193.133 224.226 193.108 224.19 193.095H224.109C224.359 192.819 224.497 192.459 224.496 192.087C224.512 191.878 224.485 191.668 224.416 191.47C224.347 191.272 224.238 191.091 224.096 190.937C223.953 190.783 223.781 190.66 223.588 190.576C223.396 190.492 223.189 190.449 222.98 190.449C222.77 190.449 222.563 190.492 222.371 190.576C222.178 190.66 222.006 190.783 221.863 190.937C221.721 191.091 221.612 191.272 221.543 191.47C221.474 191.668 221.447 191.878 221.463 192.087C221.466 192.459 221.604 192.817 221.85 193.095H221.769C221.734 193.109 221.704 193.134 221.684 193.166C221.665 193.199 221.656 193.237 221.661 193.275C221.661 193.328 221.682 193.378 221.719 193.415C221.756 193.452 221.806 193.473 221.859 193.473H222.003C222.129 194.193 222.489 196.83 221.058 197.685V198.783L220.626 199.215H225.342L224.892 198.783Z" fill="#263238"/>
<path d="M215.793 198.711V197.424C214.119 196.416 214.344 193.329 214.497 192.474H214.848C214.91 192.474 214.97 192.449 215.013 192.405C215.057 192.362 215.082 192.302 215.082 192.24C215.085 192.197 215.075 192.153 215.052 192.116C215.03 192.079 214.996 192.05 214.956 192.033H214.857H214.299C214.31 191.202 214.468 190.379 214.767 189.603H213.786L213.669 188.775L214.362 188.928V188.352L213.669 188.514L213.822 187.812H213.246L213.399 188.514L212.706 188.352V188.928L213.399 188.775L213.282 189.603H212.301C212.6 190.379 212.758 191.202 212.769 192.033H212.211H212.112C212.072 192.05 212.038 192.079 212.016 192.116C211.993 192.153 211.983 192.197 211.986 192.24C211.986 192.302 212.011 192.362 212.055 192.405C212.098 192.449 212.158 192.474 212.22 192.474H212.571C212.724 193.329 212.949 196.416 211.275 197.424V198.711L210.771 199.215H216.297L215.793 198.711Z" fill="#0144D5"/>
<path opacity="0.7" d="M215.793 198.711V197.424C214.119 196.416 214.344 193.329 214.497 192.474H214.848C214.91 192.474 214.97 192.449 215.013 192.405C215.057 192.362 215.082 192.302 215.082 192.24C215.085 192.197 215.075 192.153 215.052 192.116C215.03 192.079 214.996 192.05 214.956 192.033H214.857H214.299C214.31 191.202 214.468 190.379 214.767 189.603H213.786L213.669 188.775L214.362 188.928V188.352L213.669 188.514L213.822 187.812H213.246L213.399 188.514L212.706 188.352V188.928L213.399 188.775L213.282 189.603H212.301C212.6 190.379 212.758 191.202 212.769 192.033H212.211H212.112C212.072 192.05 212.038 192.079 212.016 192.116C211.993 192.153 211.983 192.197 211.986 192.24C211.986 192.302 212.011 192.362 212.055 192.405C212.098 192.449 212.158 192.474 212.22 192.474H212.571C212.724 193.329 212.949 196.416 211.275 197.424V198.711L210.771 199.215H216.297L215.793 198.711Z" fill="white"/>
<path d="M259.371 198.711V197.424C257.697 196.416 257.922 193.329 258.075 192.474H258.426C258.488 192.474 258.548 192.449 258.591 192.405C258.635 192.362 258.66 192.302 258.66 192.24C258.663 192.197 258.653 192.153 258.63 192.116C258.608 192.079 258.574 192.05 258.534 192.033H258.435H257.877C257.888 191.202 258.046 190.379 258.345 189.603H257.4L257.283 188.775L257.976 188.928V188.352L257.283 188.514L257.436 187.812H256.86L257.013 188.514L256.32 188.352V188.928L257.013 188.775L256.896 189.603H255.915C256.214 190.379 256.372 191.202 256.383 192.033H255.825H255.726C255.686 192.05 255.652 192.079 255.63 192.116C255.607 192.153 255.597 192.197 255.6 192.24C255.6 192.302 255.625 192.362 255.668 192.405C255.712 192.449 255.772 192.474 255.834 192.474H256.185C256.338 193.329 256.563 196.416 254.889 197.424V198.711L254.385 199.215H259.911L259.371 198.711Z" fill="#263238"/>
<path d="M146.043 149.31C145.833 149.309 145.625 149.281 145.422 149.229C145.076 149.157 144.751 149.006 144.473 148.787C144.195 148.569 143.971 148.289 143.82 147.969C143.046 146.322 144.207 143.811 144.261 143.712L144.378 143.451H144.666C148.914 143.451 148.95 143.541 149.112 143.802C149.346 144.198 148.932 146.943 147.924 148.302C147.714 148.609 147.434 148.86 147.107 149.036C146.779 149.211 146.414 149.305 146.043 149.31ZM144.963 144.351C144.648 145.125 144.198 146.664 144.639 147.591C144.736 147.788 144.878 147.96 145.053 148.093C145.228 148.225 145.431 148.316 145.647 148.356C145.854 148.423 146.075 148.435 146.288 148.391C146.501 148.347 146.699 148.248 146.862 148.104C147.762 147.33 148.185 145.278 148.266 144.423C147.6 144.387 146.268 144.36 144.963 144.351Z" fill="#0144D5"/>
<path d="M169.02 298.602L168.147 314.73L162.297 315.18L160.758 298.701L169.02 298.602Z" fill="#FFC3BD"/>
<path d="M169.317 314.667C169.287 314.662 169.258 314.649 169.236 314.628C169.214 314.607 169.198 314.58 169.191 314.55C169.186 314.519 169.19 314.487 169.203 314.458C169.216 314.43 169.237 314.405 169.263 314.388C169.362 314.334 171.585 313.047 172.647 313.326C172.844 313.379 173.014 313.505 173.124 313.677C173.192 313.773 173.229 313.888 173.229 314.006C173.229 314.123 173.192 314.238 173.124 314.334C172.584 314.728 171.917 314.908 171.252 314.838C170.603 314.838 169.956 314.781 169.317 314.667ZM169.803 314.46C170.991 314.604 172.602 314.577 172.899 314.163C172.899 314.109 172.98 314.019 172.899 313.83C172.868 313.775 172.826 313.728 172.774 313.692C172.723 313.656 172.664 313.633 172.602 313.623C172.506 313.609 172.41 313.609 172.314 313.623C171.432 313.743 170.58 314.027 169.803 314.46Z" fill="#0144D5"/>
<path d="M169.2 314.658C169.178 314.643 169.16 314.623 169.147 314.6C169.134 314.576 169.128 314.55 169.128 314.523C169.188 313.616 169.531 312.75 170.109 312.048C170.223 311.948 170.356 311.874 170.5 311.829C170.644 311.784 170.796 311.77 170.946 311.787C171.36 311.787 171.495 312.03 171.513 312.201C171.648 312.921 170.127 314.316 169.371 314.658C169.371 314.658 169.371 314.658 169.308 314.658C169.273 314.671 169.235 314.671 169.2 314.658ZM170.847 312.075C170.656 312.073 170.47 312.14 170.325 312.264C169.854 312.818 169.562 313.503 169.488 314.226C170.28 313.758 171.288 312.669 171.234 312.228C171.234 312.228 171.234 312.084 170.937 312.066L170.847 312.075Z" fill="#0144D5"/>
<path d="M168.66 313.785H162C161.873 313.786 161.751 313.831 161.653 313.911C161.554 313.991 161.487 314.102 161.46 314.226L160.245 319.905C160.213 320.025 160.206 320.149 160.225 320.272C160.243 320.394 160.287 320.511 160.353 320.616C160.419 320.721 160.505 320.811 160.608 320.88C160.71 320.95 160.825 320.998 160.947 321.021H161.145C163.656 320.958 165.546 320.859 168.669 320.841C172.359 320.841 171.423 321.264 175.761 321.291C178.38 321.291 178.83 318.339 177.723 318.195C172.647 317.592 172.107 316.071 170.136 314.271C169.72 313.935 169.195 313.762 168.66 313.785Z" fill="#263238"/>
<path opacity="0.1" d="M168.435 309.375L161.757 309.393L161.145 302.886L168.795 302.796L168.435 309.375Z" fill="black"/>
<path d="M106.2 227.529C106.2 227.529 102.789 244.467 117 247.626C131.211 250.785 157.617 247.356 157.617 247.356C157.617 247.356 154.602 256.554 161.217 306.207H169.092C169.092 306.207 176.418 250.407 171.657 241.695C166.896 232.983 138.195 228.852 106.2 227.529Z" fill="#0144D5"/>
<path d="M106.2 227.529C106.2 227.529 102.789 244.467 117 247.626C131.211 250.785 157.617 247.356 157.617 247.356C157.617 247.356 154.602 256.554 161.217 306.207H169.092C169.092 306.207 176.418 250.407 171.657 241.695C166.896 232.983 138.195 228.852 106.2 227.529Z" fill="#0144D5"/>
<path opacity="0.2" d="M171 240.804C171.224 241.088 171.425 241.389 171.603 241.704C174.015 246.114 173.322 262.656 172.044 277.884C166.149 259.353 166.5 254.7 166.5 254.7C166.5 254.7 162.612 254.448 156.951 254.151C157.095 248.931 157.599 247.383 157.599 247.383C157.599 247.383 166.608 238.725 171 240.804Z" fill="black"/>
<path d="M169.848 304.038L169.407 307.161L160.758 307.179L160.335 304.182L169.848 304.038Z" fill="#0144D5"/>
<path opacity="0.3" d="M169.848 304.038L169.407 307.161L160.758 307.179L160.335 304.182L169.848 304.038Z" fill="white"/>
<path d="M191.763 295.605L194.247 311.805L188.28 312.948L183.006 297.855L191.763 295.605Z" fill="#FFC3BD"/>
<path d="M195.354 311.697C195.322 311.686 195.294 311.667 195.271 311.642C195.249 311.617 195.234 311.586 195.228 311.553C195.225 311.523 195.23 311.493 195.242 311.466C195.255 311.439 195.275 311.416 195.3 311.4C195.417 311.346 198.063 310.095 199.26 310.5C199.484 310.571 199.671 310.726 199.782 310.932C199.86 311.037 199.902 311.165 199.902 311.297C199.902 311.428 199.86 311.556 199.782 311.661C199.124 312.051 198.349 312.194 197.595 312.066C196.839 312.007 196.089 311.884 195.354 311.697ZM195.93 311.508C197.289 311.76 199.134 311.868 199.53 311.427C199.584 311.373 199.638 311.274 199.53 311.058C199.499 310.994 199.454 310.938 199.398 310.894C199.341 310.85 199.276 310.82 199.206 310.806C199.102 310.768 198.993 310.747 198.882 310.743C197.859 310.811 196.857 311.07 195.93 311.508Z" fill="#0144D5"/>
<path d="M195.3 311.679C195.277 311.662 195.259 311.638 195.247 311.611C195.236 311.584 195.233 311.555 195.237 311.526C195.237 311.436 195.579 309.537 196.56 308.826C196.701 308.723 196.862 308.65 197.032 308.612C197.202 308.573 197.378 308.569 197.55 308.601C198.018 308.682 198.153 308.925 198.162 309.114C198.261 309.924 196.362 311.346 195.462 311.67H195.39C195.361 311.681 195.33 311.684 195.3 311.679ZM197.406 308.979C197.188 308.96 196.97 309.021 196.794 309.15C196.211 309.72 195.818 310.455 195.669 311.256C196.569 310.797 197.856 309.672 197.838 309.186C197.838 309.141 197.838 309.015 197.505 308.97L197.406 308.979Z" fill="#0144D5"/>
<path d="M194.679 310.653L186.687 310.131C186.543 310.122 186.4 310.162 186.281 310.243C186.162 310.325 186.074 310.444 186.03 310.581L184.149 316.791C184.11 316.923 184.098 317.061 184.113 317.197C184.128 317.334 184.17 317.466 184.236 317.587C184.302 317.707 184.391 317.813 184.498 317.899C184.605 317.985 184.728 318.049 184.86 318.087C184.935 318.095 185.01 318.095 185.085 318.087C187.974 318.231 190.539 318.24 194.085 318.483C198.315 318.762 197.208 319.176 202.185 319.572C205.182 319.806 205.956 316.539 204.696 316.296C198.927 315.207 198.441 313.461 196.344 311.292C195.877 310.897 195.29 310.671 194.679 310.653Z" fill="#263238"/>
<path opacity="0.1" d="M184.158 301.167L192.15 298.17L193.356 306.027L186.471 307.782L184.158 301.167Z" fill="black"/>
<path d="M110.511 228.6C110.511 228.6 108.711 247.5 123.264 247.212C137.817 246.924 168.021 248.832 168.021 248.832C168.021 248.832 167.274 258.48 185.499 305.136L193.14 303.273C193.14 303.273 186.966 247.311 180.279 240.003C173.592 232.695 141.948 222.228 110.511 228.6Z" fill="#0144D5"/>
<path d="M193.401 300.942L193.725 304.083L185.328 306.153L184.194 303.345L193.401 300.942Z" fill="#0144D5"/>
<path opacity="0.3" d="M193.401 300.942L193.725 304.083L185.328 306.153L184.194 303.345L193.401 300.942Z" fill="white"/>
<path d="M144.648 146.529L147.42 150.417C146.962 150.738 146.436 150.949 145.883 151.032C145.33 151.115 144.766 151.067 144.234 150.894L144.648 146.529Z" fill="#ED893E"/>
<path d="M146.16 145.89C146.16 146.412 145.953 146.844 145.611 146.871C145.269 146.898 144.945 146.466 144.927 145.971C144.909 145.476 145.134 145.017 145.476 144.999C145.818 144.981 146.124 145.377 146.16 145.89Z" fill="#1A2E35"/>
<path d="M126 143.703C126.135 150.606 126 153.531 129.366 157.203C134.532 161.028 142.866 161.073 144.765 154.26C146.502 148.14 145.998 137.907 139.365 134.847C137.906 134.174 136.3 133.885 134.698 134.008C133.096 134.131 131.552 134.661 130.213 135.549C128.874 136.436 127.784 137.651 127.047 139.078C126.309 140.505 125.949 142.097 126 143.703Z" fill="#FFC3BD"/>
<path opacity="0.2" d="M136.539 159.777V159.435C136.611 158.688 137.277 157.266 138.015 157.428L140.904 158.949C139.539 159.579 138.04 159.863 136.539 159.777Z" fill="#1A2E35"/>
<path d="M144.171 143.64C144.216 143.643 144.261 143.635 144.302 143.616C144.343 143.597 144.378 143.568 144.405 143.532C144.602 143.255 144.863 143.029 145.165 142.872C145.467 142.716 145.802 142.633 146.142 142.632C146.177 142.634 146.213 142.63 146.247 142.619C146.28 142.607 146.312 142.589 146.338 142.566C146.365 142.542 146.387 142.514 146.403 142.482C146.418 142.45 146.428 142.416 146.43 142.38C146.433 142.309 146.408 142.24 146.361 142.186C146.314 142.132 146.249 142.099 146.178 142.092C145.75 142.087 145.326 142.184 144.943 142.375C144.56 142.566 144.227 142.845 143.973 143.19C143.93 143.249 143.911 143.322 143.921 143.395C143.931 143.467 143.969 143.532 144.027 143.577C144.068 143.611 144.118 143.633 144.171 143.64Z" fill="#1A2E35"/>
<path d="M136.701 158.022L134.829 168.381L125.289 167.112L128.376 156.447L136.701 158.022Z" fill="#FFC3BD"/>
<path d="M136.476 163.98L139.707 162.117C139.707 162.117 129.384 158.751 124.947 160.038C120.51 161.325 122.436 163.377 122.436 163.377L136.476 163.98Z" fill="#0144D5"/>
<path opacity="0.3" d="M136.476 163.98L139.707 162.117C139.707 162.117 129.384 158.751 124.947 160.038C120.51 161.325 122.436 163.377 122.436 163.377L136.476 163.98Z" fill="black"/>
<path opacity="0.2" d="M122.4 163.377L136.44 163.98L138.24 162.954C128.34 159.984 123.678 161.568 122.04 162.504C122.08 162.822 122.204 163.123 122.4 163.377Z" fill="black"/>
<path d="M124.776 178.506C124.776 178.506 129.276 195.678 131.076 197.352C132.192 198.423 151.776 196.155 151.776 196.155L157.23 194.238C157.684 194.073 158.174 194.032 158.649 194.121C159.124 194.21 159.566 194.424 159.93 194.742C161.586 196.155 164.331 198.72 164.43 200.232C164.368 200.636 164.216 201.022 163.983 201.358C163.751 201.695 163.445 201.975 163.089 202.176C161.964 202.491 158.841 200.259 158.841 200.259L151.731 200.88C151.731 200.88 134.055 206.19 128.88 205.686C122.868 205.101 117.342 183.438 117.342 183.438L124.776 178.506Z" fill="#FF8B7B"/>
<path d="M124.776 178.506C124.776 178.506 129.276 195.678 131.076 197.352C132.192 198.423 151.776 196.155 151.776 196.155L157.23 194.238C157.684 194.073 158.174 194.032 158.649 194.121C159.124 194.21 159.566 194.424 159.93 194.742C161.586 196.155 164.331 198.72 164.43 200.232C164.368 200.636 164.216 201.022 163.983 201.358C163.751 201.695 163.445 201.975 163.089 202.176C161.964 202.491 158.841 200.259 158.841 200.259L151.731 200.88C151.731 200.88 134.055 206.19 128.88 205.686C122.868 205.101 117.342 183.438 117.342 183.438L124.776 178.506Z" fill="#FFC3BD"/>
<path opacity="0.1" d="M124.776 178.506C124.776 178.506 129.276 195.678 131.076 197.352C132.192 198.423 151.776 196.155 151.776 196.155L157.23 194.238C157.684 194.073 158.174 194.032 158.649 194.121C159.124 194.21 159.566 194.424 159.93 194.742C161.586 196.155 164.331 198.72 164.43 200.232C164.368 200.636 164.216 201.022 163.983 201.358C163.751 201.695 163.445 201.975 163.089 202.176C161.964 202.491 158.841 200.259 158.841 200.259L151.731 200.88C151.731 200.88 134.055 206.19 128.88 205.686C122.868 205.101 117.342 183.438 117.342 183.438L124.776 178.506Z" fill="black"/>
<path d="M117.9 165.861C117.9 165.861 123.003 166.464 126.792 183.438C123.653 184.391 120.758 186.012 118.305 188.19C118.305 188.19 115.272 180.45 114.975 176.22C114.862 172.548 115.883 168.931 117.9 165.861Z" fill="#0144D5"/>
<path opacity="0.3" d="M117.9 165.861C117.9 165.861 123.003 166.464 126.792 183.438C123.653 184.391 120.758 186.012 118.305 188.19C118.305 188.19 115.272 180.45 114.975 176.22C114.862 172.548 115.883 168.931 117.9 165.861Z" fill="black"/>
<path d="M145.638 168.777C145.638 168.777 140.112 207.36 139.482 227.367C139.482 227.367 126.882 228.825 105.462 229.167C105.462 229.167 102.195 166.806 122.436 163.395C141.3 160.2 145.638 168.777 145.638 168.777Z" fill="#0144D5"/>
<path opacity="0.3" d="M145.638 168.777C145.638 168.777 140.112 207.36 139.482 227.367C139.482 227.367 126.882 228.825 105.462 229.167C105.462 229.167 102.195 166.806 122.436 163.395C141.3 160.2 145.638 168.777 145.638 168.777Z" fill="black"/>
<path opacity="0.2" d="M141.147 170.658L144.243 179.073C143.829 182.232 143.343 185.949 142.875 189.954C140.223 183.91 139.262 177.259 140.094 170.712L141.147 170.658Z" fill="black"/>
<path d="M150.84 175.797C150.84 175.797 157.059 185.787 159.327 186.957C160.776 187.713 175.914 183.969 175.914 183.969C175.914 183.969 180.234 179.532 182.16 179.469C184.437 179.397 189.108 182.169 189.882 184.338C189.944 184.764 189.907 185.199 189.773 185.608C189.638 186.017 189.411 186.39 189.108 186.696C188.073 187.344 185.463 185.877 184.248 186.021C182.385 186.237 178.983 188.028 177.255 188.766C171.657 191.133 164.961 195.003 159.588 196.029C153.342 197.217 144.756 182.997 144.756 182.997L150.84 175.797Z" fill="#FFC3BD"/>
<path d="M140.535 165.87C140.535 165.87 148.266 162.666 155.835 180.972C155.835 180.972 151.803 181.134 146.511 187.758C146.511 187.758 142.227 181.377 140.67 177.192C138.6 171.612 140.535 165.87 140.535 165.87Z" fill="#0144D5"/>
<path opacity="0.3" d="M140.535 165.87C140.535 165.87 148.266 162.666 155.835 180.972C155.835 180.972 151.803 181.134 146.511 187.758C146.511 187.758 142.227 181.377 140.67 177.192C138.6 171.612 140.535 165.87 140.535 165.87Z" fill="black"/>
<path d="M134.748 157.653C137.063 154.621 138.507 151.014 138.924 147.222C138.924 147.222 141.408 147.456 141.759 145.485C142.11 143.514 138.456 138.285 138.456 138.285C138.456 138.285 142.479 138.537 143.1 135.981C143.478 134.424 143.28 132.129 140.769 130.005C137.979 127.638 138.15 132.291 138.15 132.291C138.15 132.291 136.125 128.358 133.911 127.71C131.697 127.062 133.407 131.94 133.407 131.94C133.407 131.94 130.86 129.933 128.664 130.824C127.278 131.391 128.556 134.307 128.556 134.307C128.556 134.307 123.516 136.359 122.868 137.907C122.112 139.707 122.931 142.506 123.264 145.494C123.552 148.194 125.064 152.28 127.332 155.907C127.547 156.261 127.849 156.553 128.211 156.755C128.572 156.957 128.979 157.061 129.393 157.059C131.194 157.061 132.99 157.26 134.748 157.653Z" fill="#263238"/>
<path d="M138.952 143.243L138.934 144.143L148.213 144.329L148.231 143.429L138.952 143.243Z" fill="#0144D5"/>
<path d="M140.184 145.728C140.43 146.382 140.545 147.077 140.522 147.775C140.499 148.474 140.338 149.16 140.049 149.796C139.266 151.488 138.339 151.092 137.349 149.625C136.449 148.293 135.81 145.809 137.178 144.585C138.546 143.361 139.554 144.117 140.184 145.728Z" fill="#FFC3BD"/>
<path d="M85.995 257.328C93.726 257.328 101.52 257.049 109.242 257.328C121.554 257.769 120.78 270.225 121.401 279.081C122.04 288.252 122.805 297.423 123.327 306.603C123.669 312.633 120.24 317.403 113.895 317.691C110.862 317.808 107.793 317.691 104.751 317.691H77.337C74.808 317.691 74.799 321.615 77.337 321.615H104.751C108.009 321.615 111.33 321.786 114.588 321.615C117.958 321.466 121.147 320.047 123.513 317.642C125.879 315.238 127.246 312.027 127.341 308.655C127.575 299.574 126.099 290.187 125.469 281.133C124.839 272.079 125.964 260.433 116.595 255.276C111.96 252.711 106.254 253.422 101.142 253.422H85.995C83.466 253.422 83.466 257.355 85.995 257.355V257.328Z" fill="#263238"/>
<g opacity="0.5">
<path d="M85.995 257.328C93.726 257.328 101.52 257.049 109.242 257.328C121.554 257.769 120.78 270.225 121.401 279.081C122.04 288.252 122.805 297.423 123.327 306.603C123.669 312.633 120.24 317.403 113.895 317.691C110.862 317.808 107.793 317.691 104.751 317.691H77.337C74.808 317.691 74.799 321.615 77.337 321.615H104.751C108.009 321.615 111.33 321.786 114.588 321.615C117.958 321.466 121.147 320.047 123.513 317.642C125.879 315.238 127.246 312.027 127.341 308.655C127.575 299.574 126.099 290.187 125.469 281.133C124.839 272.079 125.964 260.433 116.595 255.276C111.96 252.711 106.254 253.422 101.142 253.422H85.995C83.466 253.422 83.466 257.355 85.995 257.355V257.328Z" fill="white"/>
</g>
<g opacity="0.2">
<path d="M85.995 257.328C93.726 257.328 101.52 257.049 109.242 257.328C121.554 257.769 120.78 270.225 121.401 279.081C122.04 288.252 122.805 297.423 123.327 306.603C123.669 312.633 120.24 317.403 113.895 317.691C110.862 317.808 107.793 317.691 104.751 317.691H77.337C74.808 317.691 74.799 321.615 77.337 321.615H104.751C108.009 321.615 111.33 321.786 114.588 321.615C117.958 321.466 121.147 320.047 123.513 317.642C125.879 315.238 127.246 312.027 127.341 308.655C127.575 299.574 126.099 290.187 125.469 281.133C124.839 272.079 125.964 260.433 116.595 255.276C111.96 252.711 106.254 253.422 101.142 253.422H85.995C83.466 253.422 83.466 257.355 85.995 257.355V257.328Z" fill="black"/>
</g>
<path opacity="0.2" d="M116.595 255.249C111.96 252.684 106.254 253.395 101.142 253.395H85.995C83.466 253.395 83.466 257.328 85.995 257.328C93.726 257.328 101.52 257.049 109.242 257.328C111.34 257.338 113.399 257.893 115.218 258.939H120.969C119.778 257.423 118.29 256.167 116.595 255.249Z" fill="black"/>
<path d="M79.956 245.304C86.7283 243.587 93.6715 242.633 100.656 242.46C107.856 242.28 134.685 242.46 141.066 242.46C148.842 242.451 156.588 243.416 164.124 245.331C168.858 246.537 167.391 253.377 163.116 253.431C162.738 253.431 81.567 253.431 81.27 253.431C76.752 253.62 75.114 246.537 79.956 245.304Z" fill="#263238"/>
<path d="M161.874 253.278C148.186 249.804 133.847 249.804 120.159 253.278C115.002 254.592 112.806 246.618 117.963 245.304C133.095 241.461 148.947 241.461 164.079 245.304C169.227 246.618 167.04 254.601 161.874 253.278Z" fill="#263238"/>
<path opacity="0.1" d="M161.874 253.278C148.186 249.804 133.847 249.804 120.159 253.278C115.002 254.592 112.806 246.618 117.963 245.304C133.095 241.461 148.947 241.461 164.079 245.304C169.227 246.618 167.04 254.601 161.874 253.278Z" fill="white"/>
<path d="M101.295 186.147C101.759 186.134 102.217 186.25 102.619 186.482C103.021 186.714 103.351 187.053 103.572 187.461C114.501 205.77 118.427 227.419 114.624 248.4C114.565 248.93 114.318 249.422 113.929 249.786C113.539 250.151 113.033 250.365 112.5 250.389C110.844 250.497 81.369 250.389 80.307 250.389C79.8702 250.399 79.4367 250.312 79.0372 250.135C78.6377 249.959 78.2822 249.696 77.996 249.366C77.7098 249.036 77.4999 248.646 77.3813 248.226C77.2627 247.805 77.2384 247.364 77.31 246.933C80.753 227.386 77.0268 207.253 66.816 190.233C65.556 188.136 67.41 186.174 69.291 186.138C70.146 186.129 99.414 186.183 101.295 186.147Z" fill="#263238"/>
<path opacity="0.1" d="M101.295 186.147C101.759 186.134 102.217 186.25 102.619 186.482C103.021 186.714 103.351 187.053 103.572 187.461C114.501 205.77 118.427 227.419 114.624 248.4C114.565 248.93 114.318 249.422 113.929 249.786C113.539 250.151 113.033 250.365 112.5 250.389C110.844 250.497 81.369 250.389 80.307 250.389C79.8702 250.399 79.4367 250.312 79.0372 250.135C78.6377 249.959 78.2822 249.696 77.996 249.366C77.7098 249.036 77.4999 248.646 77.3813 248.226C77.2627 247.805 77.2384 247.364 77.31 246.933C80.753 227.386 77.0268 207.253 66.816 190.233C65.556 188.136 67.41 186.174 69.291 186.138C70.146 186.129 99.414 186.183 101.295 186.147Z" fill="white"/>
<path d="M109.305 246.906C112.757 227.359 109.03 207.223 98.811 190.206C97.011 187.155 101.745 184.383 103.572 187.425C114.51 205.744 118.436 227.407 114.624 248.4C113.994 251.892 108.684 250.416 109.305 246.942V246.906Z" fill="#263238"/>
<path d="M123.471 257.328C131.211 257.328 138.996 257.049 146.727 257.328C159.039 257.769 158.265 270.225 158.877 279.081C159.525 288.252 160.281 297.423 160.803 306.603C161.145 312.633 157.716 317.403 151.38 317.691C148.338 317.808 145.269 317.691 142.227 317.691H114.813C112.284 317.691 112.284 321.615 114.813 321.615H142.2C145.467 321.615 148.779 321.786 152.046 321.615C155.415 321.466 158.603 320.046 160.967 317.642C163.332 315.237 164.698 312.026 164.79 308.655C165.033 299.574 163.557 290.187 162.927 281.133C162.297 272.079 163.422 260.433 154.053 255.276C149.409 252.711 143.703 253.422 138.6 253.422H123.471C120.951 253.422 120.942 257.355 123.471 257.355V257.328Z" fill="#263238"/>
<g opacity="0.5">
<path d="M123.471 257.328C131.211 257.328 138.996 257.049 146.727 257.328C159.039 257.769 158.265 270.225 158.877 279.081C159.525 288.252 160.281 297.423 160.803 306.603C161.145 312.633 157.716 317.403 151.38 317.691C148.338 317.808 145.269 317.691 142.227 317.691H114.813C112.284 317.691 112.284 321.615 114.813 321.615H142.2C145.467 321.615 148.779 321.786 152.046 321.615C155.415 321.466 158.603 320.046 160.967 317.642C163.332 315.237 164.698 312.026 164.79 308.655C165.033 299.574 163.557 290.187 162.927 281.133C162.297 272.079 163.422 260.433 154.053 255.276C149.409 252.711 143.703 253.422 138.6 253.422H123.471C120.951 253.422 120.942 257.355 123.471 257.355V257.328Z" fill="white"/>
</g>
<path opacity="0.2" d="M154.08 255.249C149.436 252.684 143.73 253.395 138.627 253.395H123.471C120.951 253.395 120.942 257.328 123.471 257.328C131.211 257.328 138.996 257.049 146.727 257.328C148.825 257.339 150.884 257.894 152.703 258.939H158.454C157.259 257.427 155.771 256.172 154.08 255.249Z" fill="black"/>
<path d="M289.944 32.535H160.056C155.553 32.535 151.902 36.1857 151.902 40.689V127.377C151.902 131.88 155.553 135.531 160.056 135.531H289.944C294.447 135.531 298.098 131.88 298.098 127.377V40.689C298.098 36.1857 294.447 32.535 289.944 32.535Z" fill="#0144D5"/>
<path opacity="0.8" d="M289.944 32.535H160.056C155.553 32.535 151.902 36.1857 151.902 40.689V127.377C151.902 131.88 155.553 135.531 160.056 135.531H289.944C294.447 135.531 298.098 131.88 298.098 127.377V40.689C298.098 36.1857 294.447 32.535 289.944 32.535Z" fill="white"/>
<path d="M289.944 137.331H160.056C157.417 137.329 154.886 136.279 153.02 134.413C151.154 132.547 150.104 130.016 150.102 127.377V40.689C150.104 38.0498 151.154 35.5193 153.02 33.6531C154.886 31.7869 157.417 30.7374 160.056 30.735H289.944C292.583 30.7374 295.114 31.7869 296.98 33.6531C298.846 35.5193 299.896 38.0498 299.898 40.689V127.377C299.896 130.016 298.846 132.547 296.98 134.413C295.114 136.279 292.583 137.329 289.944 137.331ZM160.056 34.335C158.372 34.3374 156.757 35.0076 155.566 36.1987C154.375 37.3898 153.704 39.0046 153.702 40.689V127.377C153.704 129.061 154.375 130.676 155.566 131.867C156.757 133.058 158.372 133.729 160.056 133.731H289.944C291.628 133.729 293.243 133.058 294.434 131.867C295.625 130.676 296.296 129.061 296.298 127.377V40.689C296.296 39.0046 295.625 37.3898 294.434 36.1987C293.243 35.0076 291.628 34.3374 289.944 34.335H160.056Z" fill="#263238"/>
<path d="M270.09 38.952H179.919V129.123H270.09V38.952Z" fill="#263238"/>
<path d="M270.09 38.952H179.919V129.123H270.09V38.952Z" fill="white"/>
<path d="M202.455 38.952H191.187V50.22H202.455V38.952Z" fill="#0144D5"/>
<path d="M225 38.952H213.732V50.22H225V38.952Z" fill="#0144D5"/>
<path d="M247.536 38.952H236.268V50.22H247.536V38.952Z" fill="#0144D5"/>
<path d="M270.081 38.952H258.813V50.22H270.081V38.952Z" fill="#0144D5"/>
<path d="M191.187 50.22H179.919V61.488H191.187V50.22Z" fill="#0144D5"/>
<path d="M213.723 50.22H202.455V61.488H213.723V50.22Z" fill="#0144D5"/>
<path d="M236.268 50.22H225V61.488H236.268V50.22Z" fill="#0144D5"/>
<path d="M258.813 50.22H247.545V61.488H258.813V50.22Z" fill="#0144D5"/>
<path d="M202.455 61.497H191.187V72.765H202.455V61.497Z" fill="#0144D5"/>
<path d="M225 61.497H213.732V72.765H225V61.497Z" fill="#0144D5"/>
<path d="M247.536 61.497H236.268V72.765H247.536V61.497Z" fill="#0144D5"/>
<path d="M270.081 61.497H258.813V72.765H270.081V61.497Z" fill="#0144D5"/>
<path d="M191.187 72.765H179.919V84.033H191.187V72.765Z" fill="#0144D5"/>
<path d="M213.723 72.765H202.455V84.033H213.723V72.765Z" fill="#0144D5"/>
<path d="M236.268 72.765H225V84.033H236.268V72.765Z" fill="#0144D5"/>
<path d="M258.813 72.765H247.545V84.033H258.813V72.765Z" fill="#0144D5"/>
<path d="M202.455 84.033H191.187V95.301H202.455V84.033Z" fill="#0144D5"/>
<path d="M225 84.033H213.732V95.301H225V84.033Z" fill="#0144D5"/>
<path d="M247.536 84.033H236.268V95.301H247.536V84.033Z" fill="#0144D5"/>
<path d="M270.081 84.033H258.813V95.301H270.081V84.033Z" fill="#0144D5"/>
<path d="M191.187 95.31H179.919V106.578H191.187V95.31Z" fill="#0144D5"/>
<path d="M213.723 95.31H202.455V106.578H213.723V95.31Z" fill="#0144D5"/>
<path d="M236.268 95.31H225V106.578H236.268V95.31Z" fill="#0144D5"/>
<path d="M258.813 95.31H247.545V106.578H258.813V95.31Z" fill="#0144D5"/>
<path d="M202.455 106.578H191.187V117.846H202.455V106.578Z" fill="#0144D5"/>
<path d="M225 106.578H213.732V117.846H225V106.578Z" fill="#0144D5"/>
<path d="M247.536 106.578H236.268V117.846H247.536V106.578Z" fill="#0144D5"/>
<path d="M270.081 106.578H258.813V117.846H270.081V106.578Z" fill="#0144D5"/>
<path d="M191.187 117.846H179.919V129.114H191.187V117.846Z" fill="#0144D5"/>
<path d="M213.723 117.846H202.455V129.114H213.723V117.846Z" fill="#0144D5"/>
<path d="M236.268 117.846H225V129.114H236.268V117.846Z" fill="#0144D5"/>
<path d="M258.813 117.846H247.545V129.114H258.813V117.846Z" fill="#0144D5"/>
<g opacity="0.3">
<path d="M202.455 38.952H191.187V50.22H202.455V38.952Z" fill="black"/>
<path d="M225 38.952H213.732V50.22H225V38.952Z" fill="black"/>
<path d="M247.536 38.952H236.268V50.22H247.536V38.952Z" fill="black"/>
<path d="M270.081 38.952H258.813V50.22H270.081V38.952Z" fill="black"/>
<path d="M191.187 50.22H179.919V61.488H191.187V50.22Z" fill="black"/>
<path d="M213.723 50.22H202.455V61.488H213.723V50.22Z" fill="black"/>
<path d="M236.268 50.22H225V61.488H236.268V50.22Z" fill="black"/>
<path d="M258.813 50.22H247.545V61.488H258.813V50.22Z" fill="black"/>
<path d="M202.455 61.497H191.187V72.765H202.455V61.497Z" fill="black"/>
<path d="M225 61.497H213.732V72.765H225V61.497Z" fill="black"/>
<path d="M247.536 61.497H236.268V72.765H247.536V61.497Z" fill="black"/>
<path d="M270.081 61.497H258.813V72.765H270.081V61.497Z" fill="black"/>
<path d="M191.187 72.765H179.919V84.033H191.187V72.765Z" fill="black"/>
<path d="M213.723 72.765H202.455V84.033H213.723V72.765Z" fill="black"/>
<path d="M236.268 72.765H225V84.033H236.268V72.765Z" fill="black"/>
<path d="M258.813 72.765H247.545V84.033H258.813V72.765Z" fill="black"/>
<path d="M202.455 84.033H191.187V95.301H202.455V84.033Z" fill="black"/>
<path d="M225 84.033H213.732V95.301H225V84.033Z" fill="black"/>
<path d="M247.536 84.033H236.268V95.301H247.536V84.033Z" fill="black"/>
<path d="M270.081 84.033H258.813V95.301H270.081V84.033Z" fill="black"/>
<path d="M191.187 95.31H179.919V106.578H191.187V95.31Z" fill="black"/>
<path d="M213.723 95.31H202.455V106.578H213.723V95.31Z" fill="black"/>
<path d="M236.268 95.31H225V106.578H236.268V95.31Z" fill="black"/>
<path d="M258.813 95.31H247.545V106.578H258.813V95.31Z" fill="black"/>
<path d="M202.455 106.578H191.187V117.846H202.455V106.578Z" fill="black"/>
<path d="M225 106.578H213.732V117.846H225V106.578Z" fill="black"/>
<path d="M247.536 106.578H236.268V117.846H247.536V106.578Z" fill="black"/>
<path d="M270.081 106.578H258.813V117.846H270.081V106.578Z" fill="black"/>
<path d="M191.187 117.846H179.919V129.114H191.187V117.846Z" fill="black"/>
<path d="M213.723 117.846H202.455V129.114H213.723V117.846Z" fill="black"/>
<path d="M236.268 117.846H225V129.114H236.268V117.846Z" fill="black"/>
<path d="M258.813 117.846H247.545V129.114H258.813V117.846Z" fill="black"/>
</g>
<path d="M210.42 71.334V70.002C208.692 68.967 209.115 65.79 209.277 64.908H209.448C209.512 64.908 209.574 64.8824 209.62 64.8368C209.665 64.7912 209.691 64.7294 209.691 64.665C209.69 64.6202 209.677 64.5766 209.653 64.5387C209.629 64.5007 209.596 64.4698 209.556 64.449L210.456 63.666V62.406H209.7V62.874H208.881V62.406H207.324V62.874H206.505V62.406H205.758V63.666L206.658 64.449C206.618 64.4698 206.585 64.5007 206.561 64.5387C206.537 64.5766 206.524 64.6202 206.523 64.665C206.523 64.7294 206.549 64.7912 206.594 64.8368C206.64 64.8824 206.702 64.908 206.766 64.908H206.937C207.09 65.808 207.522 68.967 205.794 70.002V71.334L205.272 71.847H210.969L210.42 71.334Z" fill="#263238"/>
<path d="M232.965 93.6V92.277C231.237 91.242 231.66 88.056 231.813 87.183H231.993C232.057 87.183 232.119 87.1574 232.165 87.1119C232.21 87.0663 232.236 87.0045 232.236 86.94C232.235 86.8953 232.222 86.8517 232.198 86.8137C232.174 86.7757 232.141 86.7448 232.101 86.724L233.001 85.941V84.681H232.2V85.149H231.381V84.681H229.86V85.149H229.041V84.681H228.294V85.941L229.194 86.724C229.154 86.7448 229.121 86.7757 229.097 86.8137C229.073 86.8517 229.06 86.8953 229.059 86.94C229.059 87.0045 229.085 87.0663 229.13 87.1119C229.176 87.1574 229.238 87.183 229.302 87.183H229.5C229.653 88.083 230.085 91.242 228.357 92.277V93.6L227.835 94.122H233.523L232.965 93.6Z" fill="#263238"/>
<path opacity="0.7" d="M232.965 93.6V92.277C231.237 91.242 231.66 88.056 231.813 87.183H231.993C232.057 87.183 232.119 87.1574 232.165 87.1119C232.21 87.0663 232.236 87.0045 232.236 86.94C232.235 86.8953 232.222 86.8517 232.198 86.8137C232.174 86.7757 232.141 86.7448 232.101 86.724L233.001 85.941V84.681H232.2V85.149H231.381V84.681H229.86V85.149H229.041V84.681H228.294V85.941L229.194 86.724C229.154 86.7448 229.121 86.7757 229.097 86.8137C229.073 86.8517 229.06 86.8953 229.059 86.94C229.059 87.0045 229.085 87.0663 229.13 87.1119C229.176 87.1574 229.238 87.183 229.302 87.183H229.5C229.653 88.083 230.085 91.242 228.357 92.277V93.6L227.835 94.122H233.523L232.965 93.6Z" fill="white"/>
<path d="M253.17 63L252.756 62.577C252.807 62.632 252.836 62.7043 252.836 62.7795C252.836 62.8547 252.807 62.927 252.756 62.982C252.73 63.0095 252.699 63.0314 252.664 63.0464C252.629 63.0614 252.591 63.0691 252.553 63.0691C252.516 63.0691 252.478 63.0614 252.443 63.0464C252.408 63.0314 252.377 63.0095 252.351 62.982L252.765 63.405C252.82 63.4562 252.892 63.4847 252.968 63.4847C253.043 63.4847 253.115 63.4562 253.17 63.405C253.197 63.3789 253.219 63.3475 253.234 63.3127C253.249 63.2779 253.257 63.2404 253.257 63.2025C253.257 63.1646 253.249 63.1271 253.234 63.0923C253.219 63.0575 253.197 63.0261 253.17 63Z" fill="#263238"/>
<path opacity="0.2" d="M253.17 63L252.756 62.577C252.807 62.632 252.836 62.7043 252.836 62.7795C252.836 62.8547 252.807 62.927 252.756 62.982C252.73 63.0095 252.699 63.0314 252.664 63.0464C252.629 63.0614 252.591 63.0691 252.553 63.0691C252.516 63.0691 252.478 63.0614 252.443 63.0464C252.408 63.0314 252.377 63.0095 252.351 62.982L252.765 63.405C252.82 63.4562 252.892 63.4847 252.968 63.4847C253.043 63.4847 253.115 63.4562 253.17 63.405C253.197 63.3789 253.219 63.3475 253.234 63.3127C253.249 63.2779 253.257 63.2404 253.257 63.2025C253.257 63.1646 253.249 63.1271 253.234 63.0923C253.219 63.0575 253.197 63.0261 253.17 63Z" fill="white"/>
<path d="M255.231 71.496V70.2C253.503 69.165 253.926 65.988 254.079 65.106H254.259C254.323 65.106 254.385 65.0804 254.431 65.0348C254.476 64.9892 254.502 64.9274 254.502 64.863C254.501 64.8182 254.488 64.7746 254.464 64.7367C254.44 64.6987 254.407 64.6678 254.367 64.647H253.467C253.686 64.5725 253.875 64.4304 254.008 64.241C254.141 64.0517 254.21 63.8251 254.205 63.594C254.205 62.874 252.891 61.65 252.891 61.65C252.891 61.65 252.63 61.893 252.342 62.226L253.161 63.054C253.189 63.0801 253.21 63.1115 253.225 63.1463C253.24 63.1811 253.248 63.2186 253.248 63.2565C253.248 63.2944 253.24 63.3319 253.225 63.3667C253.21 63.4015 253.189 63.4329 253.161 63.459C253.106 63.5102 253.034 63.5387 252.959 63.5387C252.883 63.5387 252.811 63.5102 252.756 63.459L251.982 62.685C251.769 62.9424 251.632 63.2541 251.586 63.585C251.58 63.8164 251.648 64.0437 251.781 64.2333C251.914 64.4229 252.104 64.5648 252.324 64.638H251.424C251.384 64.6588 251.351 64.6897 251.327 64.7277C251.303 64.7656 251.29 64.8092 251.289 64.854C251.289 64.9184 251.315 64.9802 251.36 65.0258C251.406 65.0714 251.468 65.097 251.532 65.097H251.703C251.856 65.997 252.288 69.156 250.56 70.191V71.523L250.038 72.036H255.726L255.231 71.496Z" fill="#263238"/>
<path d="M264.717 96.768L264.303 96.354C264.334 96.3794 264.36 96.4111 264.379 96.4471C264.397 96.483 264.408 96.5225 264.41 96.5628C264.412 96.6031 264.405 96.6435 264.391 96.6812C264.377 96.7189 264.354 96.7532 264.326 96.7817C264.297 96.8103 264.263 96.8325 264.225 96.847C264.187 96.8615 264.147 96.8678 264.107 96.8657C264.066 96.8635 264.027 96.8529 263.991 96.8346C263.955 96.8162 263.923 96.7904 263.898 96.759L264.312 97.173C264.367 97.2177 264.437 97.2403 264.508 97.2365C264.579 97.2327 264.646 97.2028 264.697 97.1526C264.747 97.1023 264.777 97.0352 264.781 96.9642C264.784 96.8932 264.762 96.8233 264.717 96.768Z" fill="#263238"/>
<path opacity="0.5" d="M264.717 96.768L264.303 96.354C264.334 96.3794 264.36 96.4111 264.379 96.4471C264.397 96.483 264.408 96.5225 264.41 96.5628C264.412 96.6031 264.405 96.6435 264.391 96.6812C264.377 96.7189 264.354 96.7532 264.326 96.7817C264.297 96.8103 264.263 96.8325 264.225 96.847C264.187 96.8615 264.147 96.8678 264.107 96.8657C264.066 96.8635 264.027 96.8529 263.991 96.8346C263.955 96.8162 263.923 96.7904 263.898 96.759L264.312 97.173C264.367 97.2177 264.437 97.2403 264.508 97.2365C264.579 97.2327 264.646 97.2028 264.697 97.1526C264.747 97.1023 264.777 97.0352 264.781 96.9642C264.784 96.8932 264.762 96.8233 264.717 96.768Z" fill="white"/>
<path d="M266.778 105.246V103.914C265.05 102.888 265.473 99.702 265.626 98.829H265.806C265.838 98.829 265.87 98.8227 265.899 98.8105C265.929 98.7983 265.955 98.7804 265.978 98.7578C266 98.7353 266.018 98.7085 266.031 98.679C266.043 98.6495 266.049 98.6179 266.049 98.586C266.05 98.5408 266.037 98.4964 266.014 98.458C265.99 98.4197 265.955 98.3891 265.914 98.37H265.014C265.232 98.2943 265.421 98.1519 265.553 97.9628C265.686 97.7738 265.755 97.5478 265.752 97.317C265.752 96.588 264.438 95.364 264.438 95.364C264.245 95.5489 264.061 95.7442 263.889 95.949L264.708 96.768C264.753 96.8233 264.775 96.8932 264.772 96.9642C264.768 97.0352 264.738 97.1023 264.688 97.1526C264.637 97.2028 264.57 97.2328 264.499 97.2365C264.428 97.2403 264.358 97.2177 264.303 97.173L263.529 96.399C263.316 96.6564 263.179 96.9681 263.133 97.299C263.128 97.5301 263.197 97.7568 263.33 97.9461C263.463 98.1354 263.652 98.2775 263.871 98.352H262.971C262.93 98.3711 262.896 98.4017 262.872 98.44C262.848 98.4784 262.835 98.5228 262.836 98.568C262.836 98.5999 262.842 98.6315 262.855 98.661C262.867 98.6905 262.885 98.7173 262.907 98.7398C262.93 98.7624 262.957 98.7803 262.986 98.7925C263.016 98.8047 263.047 98.811 263.079 98.811H263.25C263.403 99.711 263.835 102.87 262.107 103.896V105.228L261.585 105.75H267.3L266.778 105.246Z" fill="#263238"/>
<path opacity="0.7" d="M266.778 105.246V103.914C265.05 102.888 265.473 99.702 265.626 98.829H265.806C265.838 98.829 265.87 98.8227 265.899 98.8105C265.929 98.7983 265.955 98.7804 265.978 98.7578C266 98.7353 266.018 98.7085 266.031 98.679C266.043 98.6495 266.049 98.6179 266.049 98.586C266.05 98.5408 266.037 98.4964 266.014 98.458C265.99 98.4197 265.955 98.3891 265.914 98.37H265.014C265.232 98.2943 265.421 98.1519 265.553 97.9628C265.686 97.7738 265.755 97.5478 265.752 97.317C265.752 96.588 264.438 95.364 264.438 95.364C264.245 95.5489 264.061 95.7442 263.889 95.949L264.708 96.768C264.753 96.8233 264.775 96.8932 264.772 96.9642C264.768 97.0352 264.738 97.1023 264.688 97.1526C264.637 97.2028 264.57 97.2328 264.499 97.2365C264.428 97.2403 264.358 97.2177 264.303 97.173L263.529 96.399C263.316 96.6564 263.179 96.9681 263.133 97.299C263.128 97.5301 263.197 97.7568 263.33 97.9461C263.463 98.1354 263.652 98.2775 263.871 98.352H262.971C262.93 98.3711 262.896 98.4017 262.872 98.44C262.848 98.4784 262.835 98.5228 262.836 98.568C262.836 98.5999 262.842 98.6315 262.855 98.661C262.867 98.6905 262.885 98.7173 262.907 98.7398C262.93 98.7624 262.957 98.7803 262.986 98.7925C263.016 98.8047 263.047 98.811 263.079 98.811H263.25C263.403 99.711 263.835 102.87 262.107 103.896V105.228L261.585 105.75H267.3L266.778 105.246Z" fill="white"/>
<path d="M239.733 58.329V59.661L239.211 60.174H244.899L244.386 59.661V58.329C242.658 57.294 244.386 55.35 244.386 53.397C244.386 51.786 242.856 51.597 241.758 51.741L240.912 51.534L241.056 51.849C240.931 51.868 240.808 51.895 240.687 51.93L240.849 52.452C240.512 52.6308 240.208 52.8651 239.949 53.145C239.688 53.532 239.409 53.325 239.049 53.91C238.689 54.495 239.211 54.657 239.211 54.657C239.85 54.351 239.328 54.783 239.328 54.783C239.916 54.7754 240.501 54.6876 241.065 54.522C241.2 55.395 241.461 57.294 239.733 58.329Z" fill="#263238"/>
<path d="M187.479 127.098V126C186.048 125.145 186.399 122.508 186.525 121.788H186.669C186.724 121.788 186.777 121.766 186.815 121.727C186.854 121.689 186.876 121.636 186.876 121.581C186.877 121.543 186.866 121.505 186.846 121.473C186.825 121.441 186.794 121.416 186.759 121.401H186.678C186.928 121.125 187.066 120.766 187.065 120.393C187.081 120.184 187.054 119.974 186.985 119.776C186.916 119.578 186.807 119.397 186.665 119.243C186.522 119.089 186.35 118.966 186.157 118.882C185.965 118.798 185.758 118.755 185.548 118.755C185.339 118.755 185.132 118.798 184.94 118.882C184.747 118.966 184.575 119.089 184.432 119.243C184.29 119.397 184.181 119.578 184.112 119.776C184.043 119.974 184.016 120.184 184.032 120.393C184.035 120.765 184.172 121.123 184.419 121.401H184.338C184.303 121.416 184.274 121.441 184.255 121.474C184.236 121.506 184.227 121.543 184.23 121.581C184.229 121.608 184.233 121.634 184.242 121.66C184.252 121.685 184.266 121.708 184.285 121.727C184.303 121.746 184.325 121.762 184.35 121.772C184.375 121.783 184.401 121.788 184.428 121.788H184.572C184.698 122.508 185.058 125.145 183.627 126V127.098L183.195 127.53H187.902L187.479 127.098Z" fill="#263238"/>
<path opacity="0.7" d="M187.479 127.098V126C186.048 125.145 186.399 122.508 186.525 121.788H186.669C186.724 121.788 186.777 121.766 186.815 121.727C186.854 121.689 186.876 121.636 186.876 121.581C186.877 121.543 186.866 121.505 186.846 121.473C186.825 121.441 186.794 121.416 186.759 121.401H186.678C186.928 121.125 187.066 120.766 187.065 120.393C187.081 120.184 187.054 119.974 186.985 119.776C186.916 119.578 186.807 119.397 186.665 119.243C186.522 119.089 186.35 118.966 186.157 118.882C185.965 118.798 185.758 118.755 185.548 118.755C185.339 118.755 185.132 118.798 184.94 118.882C184.747 118.966 184.575 119.089 184.432 119.243C184.29 119.397 184.181 119.578 184.112 119.776C184.043 119.974 184.016 120.184 184.032 120.393C184.035 120.765 184.172 121.123 184.419 121.401H184.338C184.303 121.416 184.274 121.441 184.255 121.474C184.236 121.506 184.227 121.543 184.23 121.581C184.229 121.608 184.233 121.634 184.242 121.66C184.252 121.685 184.266 121.708 184.285 121.727C184.303 121.746 184.325 121.762 184.35 121.772C184.375 121.783 184.401 121.788 184.428 121.788H184.572C184.698 122.508 185.058 125.145 183.627 126V127.098L183.195 127.53H187.902L187.479 127.098Z" fill="white"/>
<path d="M209.952 104.472V103.365C208.521 102.51 208.872 99.882 209.007 99.153H209.151C209.203 99.153 209.254 99.1321 209.291 99.095C209.328 99.0579 209.349 99.0075 209.349 98.955C209.354 98.9173 209.345 98.8791 209.326 98.8465C209.306 98.8139 209.276 98.7887 209.241 98.775H209.16C209.406 98.4968 209.544 98.1387 209.547 97.767C209.539 97.5256 209.474 97.2895 209.357 97.0782C209.24 96.8669 209.075 96.6865 208.874 96.552C208.674 96.4174 208.444 96.3325 208.204 96.3044C207.964 96.2762 207.721 96.3056 207.495 96.3901C207.269 96.4745 207.066 96.6117 206.903 96.7901C206.74 96.9686 206.622 97.1833 206.559 97.4163C206.496 97.6494 206.489 97.8942 206.539 98.1305C206.589 98.3667 206.695 98.5877 206.847 98.775H206.766C206.732 98.791 206.704 98.8166 206.685 98.8486C206.665 98.8807 206.656 98.9177 206.658 98.955C206.658 98.9818 206.663 99.0083 206.674 99.0329C206.684 99.0575 206.7 99.0798 206.719 99.0983C206.738 99.1168 206.761 99.1312 206.786 99.1406C206.812 99.15 206.838 99.1542 206.865 99.153H207C207.135 99.882 207.486 102.51 206.055 103.365V104.472L205.623 104.895H210.339L209.952 104.472Z" fill="#263238"/>
<path opacity="0.7" d="M209.952 104.472V103.365C208.521 102.51 208.872 99.882 209.007 99.153H209.151C209.203 99.153 209.254 99.1321 209.291 99.095C209.328 99.0579 209.349 99.0075 209.349 98.955C209.354 98.9173 209.345 98.8791 209.326 98.8465C209.306 98.8139 209.276 98.7887 209.241 98.775H209.16C209.406 98.4968 209.544 98.1387 209.547 97.767C209.539 97.5256 209.474 97.2895 209.357 97.0782C209.24 96.8669 209.075 96.6865 208.874 96.552C208.674 96.4174 208.444 96.3325 208.204 96.3044C207.964 96.2762 207.721 96.3056 207.495 96.3901C207.269 96.4745 207.066 96.6117 206.903 96.7901C206.74 96.9686 206.622 97.1833 206.559 97.4163C206.496 97.6494 206.489 97.8942 206.539 98.1305C206.589 98.3667 206.695 98.5877 206.847 98.775H206.766C206.732 98.791 206.704 98.8166 206.685 98.8486C206.665 98.8807 206.656 98.9177 206.658 98.955C206.658 98.9818 206.663 99.0083 206.674 99.0329C206.684 99.0575 206.7 99.0798 206.719 99.0983C206.738 99.1168 206.761 99.1312 206.786 99.1406C206.812 99.15 206.838 99.1542 206.865 99.153H207C207.135 99.882 207.486 102.51 206.055 103.365V104.472L205.623 104.895H210.339L209.952 104.472Z" fill="white"/>
<path d="M243.837 116.1V115.02C242.406 114.12 242.757 111.528 242.883 110.799H243C243.053 110.799 243.103 110.778 243.14 110.741C243.177 110.704 243.198 110.654 243.198 110.601C243.203 110.563 243.194 110.525 243.175 110.492C243.155 110.46 243.125 110.435 243.09 110.421H243.009C243.203 110.204 243.331 109.935 243.376 109.646C243.421 109.358 243.382 109.063 243.263 108.797C243.144 108.53 242.95 108.304 242.706 108.145C242.461 107.986 242.176 107.901 241.884 107.901C241.482 107.901 241.097 108.06 240.812 108.343C240.527 108.627 240.365 109.011 240.363 109.413C240.362 109.786 240.5 110.145 240.75 110.421H240.669C240.634 110.435 240.604 110.46 240.584 110.492C240.565 110.525 240.556 110.563 240.561 110.601C240.561 110.654 240.582 110.704 240.619 110.741C240.656 110.778 240.706 110.799 240.759 110.799H240.903C241.029 111.528 241.38 114.165 239.958 115.02V116.1L239.526 116.532H244.233L243.837 116.1Z" fill="#263238"/>
<path opacity="0.7" d="M243.837 116.1V115.02C242.406 114.12 242.757 111.528 242.883 110.799H243C243.053 110.799 243.103 110.778 243.14 110.741C243.177 110.704 243.198 110.654 243.198 110.601C243.203 110.563 243.194 110.525 243.175 110.492C243.155 110.46 243.125 110.435 243.09 110.421H243.009C243.203 110.204 243.331 109.935 243.376 109.646C243.421 109.358 243.382 109.063 243.263 108.797C243.144 108.53 242.95 108.304 242.706 108.145C242.461 107.986 242.176 107.901 241.884 107.901C241.482 107.901 241.097 108.06 240.812 108.343C240.527 108.627 240.365 109.011 240.363 109.413C240.362 109.786 240.5 110.145 240.75 110.421H240.669C240.634 110.435 240.604 110.46 240.584 110.492C240.565 110.525 240.556 110.563 240.561 110.601C240.561 110.654 240.582 110.704 240.619 110.741C240.656 110.778 240.706 110.799 240.759 110.799H240.903C241.029 111.528 241.38 114.165 239.958 115.02V116.1L239.526 116.532H244.233L243.837 116.1Z" fill="white"/>
<path d="M198.747 104.472V103.365C197.316 102.51 197.676 99.882 197.802 99.153H197.946C197.999 99.153 198.049 99.1321 198.086 99.095C198.123 99.0579 198.144 99.0075 198.144 98.955C198.149 98.9173 198.14 98.8791 198.121 98.8465C198.101 98.8139 198.071 98.7887 198.036 98.775H197.955C198.201 98.4968 198.339 98.1387 198.342 97.767C198.343 97.5202 198.284 97.277 198.17 97.0581C198.056 96.8393 197.89 96.6516 197.687 96.5111C197.484 96.3705 197.25 96.2815 197.005 96.2516C196.76 96.2217 196.512 96.2518 196.281 96.3394C196.05 96.427 195.845 96.5694 195.681 96.7543C195.518 96.9393 195.402 97.1612 195.343 97.4009C195.285 97.6406 195.286 97.891 195.345 98.1304C195.405 98.3698 195.523 98.591 195.687 98.775H195.615C195.579 98.7885 195.548 98.8132 195.527 98.8456C195.506 98.8781 195.496 98.9164 195.498 98.955C195.498 98.9818 195.503 99.0083 195.514 99.0329C195.524 99.0575 195.54 99.0798 195.559 99.0983C195.578 99.1168 195.601 99.1312 195.626 99.1406C195.652 99.15 195.678 99.1542 195.705 99.153H195.84C195.975 99.882 196.326 102.51 194.94 103.365V104.472L194.508 104.895H199.224L198.747 104.472Z" fill="#263238"/>
<path d="M221.625 92.943V91.656C219.942 90.657 220.176 87.561 220.32 86.706H220.68C220.742 86.706 220.802 86.6814 220.845 86.6375C220.889 86.5936 220.914 86.5341 220.914 86.472C220.917 86.4286 220.907 86.3853 220.884 86.3481C220.862 86.311 220.828 86.2819 220.788 86.265H220.689H220.131C220.132 85.4298 220.291 84.6023 220.599 83.826H219.6L219.474 82.998L220.176 83.151V82.575L219.474 82.737L219.636 82.035H219.06L219.213 82.737L218.52 82.575V83.151L219.213 82.998L219.096 83.826H218.115C218.415 84.6048 218.573 85.4307 218.583 86.265H218.016H217.926C217.884 86.2804 217.849 86.3089 217.824 86.3461C217.8 86.3834 217.788 86.4276 217.791 86.472C217.791 86.5035 217.797 86.5347 217.81 86.5637C217.822 86.5927 217.84 86.6189 217.863 86.6407C217.885 86.6626 217.912 86.6796 217.942 86.6908C217.971 86.7021 218.003 86.7072 218.034 86.706H218.385C218.538 87.561 218.763 90.657 217.089 91.656V92.943L216.585 93.447H222.111L221.625 92.943Z" fill="#263238"/>
<path opacity="0.7" d="M221.625 92.943V91.656C219.942 90.657 220.176 87.561 220.32 86.706H220.68C220.742 86.706 220.802 86.6814 220.845 86.6375C220.889 86.5936 220.914 86.5341 220.914 86.472C220.917 86.4286 220.907 86.3853 220.884 86.3481C220.862 86.311 220.828 86.2819 220.788 86.265H220.689H220.131C220.132 85.4298 220.291 84.6023 220.599 83.826H219.6L219.474 82.998L220.176 83.151V82.575L219.474 82.737L219.636 82.035H219.06L219.213 82.737L218.52 82.575V83.151L219.213 82.998L219.096 83.826H218.115C218.415 84.6048 218.573 85.4307 218.583 86.265H218.016H217.926C217.884 86.2804 217.849 86.3089 217.824 86.3461C217.8 86.3834 217.788 86.4276 217.791 86.472C217.791 86.5035 217.797 86.5347 217.81 86.5637C217.822 86.5927 217.84 86.6189 217.863 86.6407C217.885 86.6626 217.912 86.6796 217.942 86.6908C217.971 86.7021 218.003 86.7072 218.034 86.706H218.385C218.538 87.561 218.763 90.657 217.089 91.656V92.943L216.585 93.447H222.111L221.625 92.943Z" fill="white"/>
<path d="M231.993 71.505V70.2C230.319 69.192 230.544 66.105 230.697 65.25H231.048C231.111 65.25 231.171 65.2257 231.217 65.182C231.262 65.1384 231.289 65.0789 231.291 65.016C231.294 64.9716 231.282 64.9274 231.258 64.8901C231.233 64.8529 231.198 64.8244 231.156 64.809H231.066C230.904 64.809 230.715 64.809 230.499 64.809C230.509 63.9747 230.667 63.1488 230.967 62.37H229.986L229.869 61.542L230.562 61.695V61.119L229.869 61.281L230.022 60.579H229.446L229.608 61.281L228.906 61.119V61.695L229.608 61.542L229.482 62.37H228.501C228.809 63.1463 228.968 63.9738 228.969 64.809C228.753 64.809 228.564 64.809 228.411 64.809H228.312C228.272 64.8259 228.238 64.855 228.216 64.8921C228.193 64.9293 228.183 64.9726 228.186 65.016C228.186 65.0781 228.211 65.1376 228.255 65.1815C228.298 65.2253 228.358 65.25 228.42 65.25H228.78C228.924 66.15 229.158 69.192 227.475 70.2V71.487L226.971 71.991H232.497L231.993 71.505Z" fill="#263238"/>
</svg>
