<svg width="14" height="14" viewBox="0 0 14 14" fill="none" xmlns="http://www.w3.org/2000/svg">
<path d="M7.00054 5.24999C6.53641 5.24999 6.09129 5.43436 5.76311 5.76255C5.43492 6.09074 5.25054 6.53586 5.25054 6.99999C5.25054 7.46412 5.43492 7.90924 5.76311 8.23743C6.09129 8.56562 6.53641 8.74999 7.00054 8.74999C7.46467 8.74999 7.90979 8.56562 8.23798 8.23743C8.56617 7.90924 8.75054 7.46412 8.75054 6.99999C8.75054 6.53586 8.56617 6.09074 8.23798 5.76255C7.90979 5.43436 7.46467 5.24999 7.00054 5.24999ZM7.00054 4.08332C7.77409 4.08332 8.51596 4.39061 9.06294 4.93759C9.60992 5.48458 9.91721 6.22644 9.91721 6.99999C9.91721 7.77354 9.60992 8.5154 9.06294 9.06238C8.51596 9.60937 7.77409 9.91666 7.00054 9.91666C6.22699 9.91666 5.48513 9.60937 4.93815 9.06238C4.39117 8.5154 4.08388 7.77354 4.08388 6.99999C4.08388 6.22644 4.39117 5.48458 4.93815 4.93759C5.48513 4.39061 6.22699 4.08332 7.00054 4.08332ZM10.7922 3.93749C10.7922 4.13088 10.7154 4.31634 10.5786 4.45309C10.4419 4.58983 10.2564 4.66666 10.063 4.66666C9.86965 4.66666 9.68419 4.58983 9.54744 4.45309C9.4107 4.31634 9.33388 4.13088 9.33388 3.93749C9.33388 3.7441 9.4107 3.55864 9.54744 3.42189C9.68419 3.28515 9.86965 3.20832 10.063 3.20832C10.2564 3.20832 10.4419 3.28515 10.5786 3.42189C10.7154 3.55864 10.7922 3.7441 10.7922 3.93749ZM7.00054 2.33332C5.55738 2.33332 5.32171 2.33741 4.65029 2.36716C4.19296 2.38874 3.88613 2.44999 3.60146 2.56082C3.36336 2.64854 3.14805 2.78869 2.97146 2.97091C2.78904 3.14743 2.64868 3.36275 2.56079 3.60091C2.44996 3.88674 2.38871 4.19299 2.36771 4.64974C2.33738 5.29374 2.33329 5.51891 2.33329 6.99999C2.33329 8.44374 2.33738 8.67882 2.36713 9.35024C2.38871 9.80699 2.44996 10.1144 2.56021 10.3985C2.65938 10.6522 2.77604 10.8348 2.96971 11.0285C3.16629 11.2245 3.34888 11.3417 3.59971 11.4386C3.88788 11.55 4.19471 11.6118 4.64971 11.6328C5.29371 11.6632 5.51888 11.6667 6.99996 11.6667C8.44371 11.6667 8.67879 11.6626 9.35021 11.6328C9.80638 11.6112 10.1132 11.55 10.3985 11.4397C10.6366 11.352 10.8519 11.2119 11.0285 11.0297C11.225 10.8337 11.3423 10.6511 11.4391 10.3997C11.55 10.1127 11.6118 9.80582 11.6328 9.34966C11.6631 8.70624 11.6666 8.48049 11.6666 6.99999C11.6666 5.55682 11.6625 5.32116 11.6328 4.64974C11.6112 4.19357 11.5494 3.88557 11.4391 3.60091C11.3514 3.36281 11.2113 3.14749 11.029 2.97091C10.8525 2.78848 10.6372 2.64813 10.399 2.56024C10.1132 2.44941 9.80638 2.38816 9.35021 2.36716C8.70679 2.33682 8.48163 2.33332 6.99996 2.33332M6.99996 1.16666C8.58488 1.16666 8.78263 1.17249 9.40504 1.20166C10.0257 1.23082 10.4492 1.32824 10.8208 1.47291C11.2058 1.62107 11.5301 1.82174 11.8545 2.14549C12.1512 2.437 12.3807 2.78977 12.527 3.17916C12.6711 3.55074 12.7691 3.97424 12.7983 4.59549C12.8257 5.21732 12.8333 5.41507 12.8333 6.99999C12.8333 8.58491 12.8275 8.78266 12.7983 9.40449C12.7691 10.0263 12.6711 10.4487 12.527 10.8208C12.3807 11.2102 12.1512 11.563 11.8545 11.8545C11.5629 12.1512 11.2102 12.3808 10.8208 12.5271C10.4492 12.6712 10.0257 12.7692 9.40504 12.7983C8.78263 12.8257 8.58488 12.8333 6.99996 12.8333C5.41504 12.8333 5.21729 12.8275 4.59488 12.7983C3.97421 12.7692 3.55129 12.6712 3.17913 12.5271C2.78973 12.3808 2.43697 12.1512 2.14546 11.8545C1.84872 11.563 1.61919 11.2102 1.47288 10.8208C1.32821 10.4492 1.23079 10.0257 1.20163 9.40449C1.17363 8.78266 1.16663 8.58491 1.16663 6.99999C1.16663 5.41507 1.17246 5.21732 1.20163 4.59549C1.23079 3.97366 1.32821 3.55132 1.47288 3.17916C1.61919 2.78977 1.84872 2.437 2.14546 2.14549C2.43697 1.84875 2.78973 1.61922 3.17913 1.47291C3.55071 1.32824 3.97363 1.23082 4.59488 1.20166C5.21788 1.17424 5.41563 1.16666 7.00054 1.16666" fill="white"/>
</svg>
