<svg width="12" height="9" viewBox="0 0 12 9" fill="none" xmlns="http://www.w3.org/2000/svg">
<path d="M11.8434 3.11921L8.84331 5.50957C8.52708 5.76155 8 5.57473 8 5.20286V3.93789C4.98802 3.95494 3.71738 4.55511 4.56719 6.94995C4.66058 7.21315 4.29956 7.41695 4.04623 7.25458C3.23442 6.73427 2.5 5.73905 2.5 4.73448C2.5 2.20433 4.94998 1.70225 8 1.68798V0.42209C8 0.0498907 8.52744 -0.136332 8.84331 0.115387L11.8434 2.5058C12.0521 2.67214 12.0523 2.95272 11.8434 3.11921ZM8 6.66436V7.875H1.33333V2.25H2.39408C2.42775 2.24998 2.46106 2.24423 2.49202 2.23307C2.52298 2.22191 2.55095 2.20559 2.57425 2.18509C2.88577 1.91143 3.24585 1.69483 3.63704 1.52281C3.86892 1.42084 3.783 1.125 3.52152 1.125H1C0.447708 1.125 0 1.50276 0 1.96875V8.15625C0 8.62225 0.447708 9 1 9H8.33333C8.88562 9 9.33333 8.62225 9.33333 8.15625V6.59521C9.33333 6.44952 9.16256 6.34795 8.99977 6.39654C8.77153 6.46465 8.52712 6.48502 8.2875 6.4559C8.13604 6.43751 8 6.53525 8 6.66436Z" fill="white"/>
</svg>
