<svg width="150" height="150" viewBox="0 0 150 150" fill="none" xmlns="http://www.w3.org/2000/svg">
<g clip-path="url(#clip0_81_1615)">
<path d="M81.1114 70.4653H67.8287V123.619H81.1114V70.4653Z" fill="url(#paint0_linear_81_1615)"/>
<path d="M51.4341 118.907H97.503C97.8358 118.907 98.1653 118.973 98.4727 119.1C98.7801 119.228 99.0595 119.416 99.2948 119.652C99.53 119.888 99.7167 120.168 99.844 120.477C99.9714 120.786 100.037 121.116 100.037 121.45V131.523C100.037 132.197 99.7701 132.844 99.2952 133.321C98.8203 133.797 98.1761 134.065 97.5045 134.065H51.4372C51.1044 134.065 50.7749 133.999 50.4675 133.871C50.16 133.744 49.8807 133.556 49.6454 133.32C49.4101 133.084 49.2235 132.804 49.0961 132.495C48.9688 132.186 48.9032 131.856 48.9032 131.522V121.447C48.9032 120.773 49.1699 120.127 49.6445 119.651C50.1191 119.175 50.7629 118.907 51.4341 118.907Z" fill="url(#paint1_linear_81_1615)"/>
<path d="M63.0704 27.4883V17.455H0.860295V17.595C0.373649 20.914 0.0873611 24.2595 0.00300491 27.6132C-0.0714845 42.5996 5.66801 57.0267 16.0062 67.8397C24.1041 76.1522 30.8426 80.8491 37.4141 83.3818L31.5527 65.9878C21.5384 61.3915 9.74576 45.8205 9.93088 27.6406V27.4883H63.0704Z" fill="url(#paint2_linear_81_1615)"/>
<path d="M86.3673 27.4883V17.455H148.577V17.595C149.066 20.914 149.353 24.2594 149.439 27.6132C149.513 42.6003 143.772 57.0276 133.432 67.8397C125.335 76.1522 118.595 80.8491 112.024 83.3818L117.893 65.9878C127.907 61.3915 139.697 45.8205 139.51 27.6406V27.4883H86.3673Z" fill="url(#paint3_linear_81_1615)"/>
<g opacity="0.15">
<path d="M25.2513 17.455V27.4883H63.0704V17.455H25.2513ZM25.2513 61.8072V62.0539H25.2862C25.395 64.8506 25.7607 67.6311 26.3786 70.3603C27.0678 73.4061 28.0712 76.3716 29.3723 79.2088C31.9004 80.879 34.5957 82.2791 37.4141 83.3863L31.5527 65.9924C29.2685 64.8983 27.1476 63.4897 25.2513 61.8072Z" fill="#1A1B1E"/>
<path d="M86.3673 17.455V27.4883H123.713V17.455H86.3673ZM112.022 83.3818C114.592 82.3786 117.058 81.1269 119.386 79.6444C121.078 76.0602 122.291 72.2671 122.992 68.3637C123.354 66.346 123.579 64.3061 123.668 62.258C121.909 63.7446 119.968 64.9981 117.891 65.9878L112.022 83.3818Z" fill="#1A1B1E"/>
</g>
<path d="M27.9385 61.6198H27.9749C28.0736 64.2638 28.418 66.8927 29.0036 69.4723C30.6308 76.5721 34.005 83.1492 38.8177 88.6025C43.2921 93.6485 48.7866 97.6793 54.9351 100.426C61.0836 103.173 67.7448 104.573 74.4747 104.533C76.207 104.534 77.9382 104.443 79.6609 104.26C87.4233 103.498 94.8702 100.789 101.317 96.3828C107.764 91.9766 113.004 86.0144 116.555 79.0443C119.247 73.6175 120.758 67.6778 120.987 61.6198H121.018V3.57898H27.9385V61.6198Z" fill="url(#paint4_linear_81_1615)"/>
<path d="M107.645 143.518C107.642 144.285 107.338 145.02 106.798 145.562C106.258 146.104 105.526 146.409 104.762 146.412H44.1859C43.422 146.409 42.6901 146.104 42.15 145.562C41.6098 145.02 41.3053 144.285 41.3029 143.518V134.152C41.3029 133.384 41.6067 132.648 42.1474 132.106C42.688 131.563 43.4213 131.258 44.1859 131.258H104.759C105.523 131.258 106.257 131.563 106.797 132.106C107.338 132.648 107.642 133.384 107.642 134.152L107.645 143.518Z" fill="#555C84"/>
</g>
<defs>
<linearGradient id="paint0_linear_81_1615" x1="67.8287" y1="97.0421" x2="81.1114" y2="97.0421" gradientUnits="userSpaceOnUse">
<stop stop-color="#FACE00"/>
<stop offset="1" stop-color="#F68600"/>
</linearGradient>
<linearGradient id="paint1_linear_81_1615" x1="74.4701" y1="119.574" x2="74.4701" y2="133.08" gradientUnits="userSpaceOnUse">
<stop stop-color="#FACE00"/>
<stop offset="1" stop-color="#F68600"/>
</linearGradient>
<linearGradient id="paint2_linear_81_1615" x1="31.5364" y1="15.0816" x2="31.5364" y2="28.7284" gradientUnits="userSpaceOnUse">
<stop stop-color="#FACE00"/>
<stop offset="1" stop-color="#F68600"/>
</linearGradient>
<linearGradient id="paint3_linear_81_1615" x1="117.904" y1="15.0816" x2="117.904" y2="28.7284" gradientUnits="userSpaceOnUse">
<stop stop-color="#FACE00"/>
<stop offset="1" stop-color="#F68600"/>
</linearGradient>
<linearGradient id="paint4_linear_81_1615" x1="28.8693" y1="54.0564" x2="121.577" y2="54.0564" gradientUnits="userSpaceOnUse">
<stop stop-color="#FACE00"/>
<stop offset="1" stop-color="#F68600"/>
</linearGradient>
<clipPath id="clip0_81_1615">
<rect width="149.442" height="150" fill="white"/>
</clipPath>
</defs>
</svg>
