<svg width="14" height="14" viewBox="0 0 14 14" fill="none" xmlns="http://www.w3.org/2000/svg">
<path fill-rule="evenodd" clip-rule="evenodd" d="M8.16671 1.16666C8.47613 1.16666 8.77287 1.28957 8.99167 1.50837C9.21046 1.72716 9.33337 2.0239 9.33337 2.33332C9.33368 2.73647 9.47298 3.12719 9.72779 3.4396C9.98261 3.752 10.3373 3.967 10.7322 4.04832C11.0354 4.1099 11.3018 4.28941 11.4727 4.54736C11.6435 4.80532 11.7049 5.12059 11.6434 5.42382C11.5818 5.72705 11.4023 5.9934 11.1443 6.16428C10.8864 6.33516 10.5711 6.39656 10.2679 6.33499C9.94492 6.26906 9.63114 6.16427 9.33337 6.02291V9.33332C9.33335 9.98796 9.14972 10.6295 8.80336 11.185C8.457 11.7405 7.96179 12.1877 7.37398 12.4759C6.78618 12.764 6.12934 12.8815 5.47808 12.8151C4.82683 12.7486 4.20726 12.5009 3.68977 12.0999C3.17228 11.699 2.7776 11.161 2.55058 10.5469C2.32356 9.93293 2.27328 9.26756 2.40548 8.62641C2.53767 7.98526 2.84702 7.39403 3.2984 6.91989C3.74978 6.44575 4.32508 6.10771 4.95896 5.94416C5.2567 5.87235 5.57074 5.92051 5.83328 6.07823C6.09582 6.23596 6.28581 6.4906 6.36224 6.78719C6.43866 7.08378 6.3954 7.39853 6.24177 7.66349C6.08815 7.92845 5.83649 8.12238 5.54112 8.20341C5.26764 8.27597 5.02981 8.44536 4.87182 8.68009C4.71383 8.91482 4.64643 9.19892 4.68215 9.4796C4.71786 9.76028 4.85427 10.0185 5.06601 10.2061C5.27776 10.3938 5.55043 10.4982 5.83337 10.5C6.14279 10.5 6.43954 10.3771 6.65833 10.1583C6.87712 9.93949 7.00004 9.64274 7.00004 9.33332V2.33332C7.00004 2.0239 7.12296 1.72716 7.34175 1.50837C7.56054 1.28957 7.85729 1.16666 8.16671 1.16666Z" fill="white"/>
</svg>
