<svg width="16" height="16" viewBox="0 0 16 16" fill="none" xmlns="http://www.w3.org/2000/svg">
<rect x="0.5" y="0.5" width="15" height="15" rx="7.5" stroke="url(#paint0_linear_77_58)"/>
<path d="M8.00334 14.6687C4.32134 14.6687 1.33667 11.684 1.33667 8.00199C1.33667 4.31999 4.32134 1.33533 8.00334 1.33533C11.6853 1.33533 14.67 4.31999 14.67 8.00199C14.67 11.684 11.6853 14.6687 8.00334 14.6687ZM8.00334 13.3353C9.41782 13.3353 10.7744 12.7734 11.7746 11.7732C12.7748 10.773 13.3367 9.41648 13.3367 8.00199C13.3367 6.58751 12.7748 5.23095 11.7746 4.23076C10.7744 3.23056 9.41782 2.66866 8.00334 2.66866C6.58885 2.66866 5.23229 3.23056 4.2321 4.23076C3.23191 5.23095 2.67 6.58751 2.67 8.00199C2.67 9.41648 3.23191 10.773 4.2321 11.7732C5.23229 12.7734 6.58885 13.3353 8.00334 13.3353ZM7.33667 10.6687H5.33667V5.33533H7.33667V4.00199H8.67V5.33533H9.33667C9.64619 5.33533 9.94959 5.42152 10.2129 5.58424C10.4762 5.74697 10.689 5.97979 10.8274 6.25664C10.9658 6.53348 11.0244 6.8434 10.9966 7.15167C10.9688 7.45994 10.8557 7.75438 10.67 8.00199C10.8557 8.24961 10.9688 8.54405 10.9966 8.85232C11.0244 9.16059 10.9658 9.47051 10.8274 9.74735C10.689 10.0242 10.4762 10.257 10.2129 10.4197C9.94959 10.5825 9.64619 10.6687 9.33667 10.6687H8.67V12.002H7.33667V10.6687ZM6.67 8.66866V9.33533H9.33667C9.42507 9.33533 9.50986 9.30021 9.57237 9.2377C9.63488 9.17518 9.67 9.0904 9.67 9.00199C9.67 8.91359 9.63488 8.8288 9.57237 8.76629C9.50986 8.70378 9.42507 8.66866 9.33667 8.66866H6.67ZM6.67 6.66866V7.33533H9.33667C9.42507 7.33533 9.50986 7.30021 9.57237 7.2377C9.63488 7.17518 9.67 7.0904 9.67 7.00199C9.67 6.91359 9.63488 6.8288 9.57237 6.76629C9.50986 6.70378 9.42507 6.66866 9.33667 6.66866H6.67Z" fill="white"/>
<defs>
<linearGradient id="paint0_linear_77_58" x1="0" y1="8" x2="16" y2="8" gradientUnits="userSpaceOnUse">
<stop stop-color="#838383"/>
<stop offset="0.206" stop-color="#575757"/>
<stop offset="0.431" stop-color="#424242"/>
<stop offset="0.621" stop-color="#1D1D1D"/>
</linearGradient>
</defs>
</svg>
