<svg width="20" height="20" viewBox="0 0 20 20" fill="none" xmlns="http://www.w3.org/2000/svg">
<g clip-path="url(#clip0_75_8)">
<path d="M16.0466 3.97333C14.4654 2.48874 12.3772 1.6637 10.2083 1.66666C5.49079 1.66666 1.66663 5.49083 1.66663 10.2083C1.66663 14.9258 5.49079 18.75 10.2083 18.75C12.4558 18.7532 14.6134 17.8674 16.2104 16.2858L9.99996 10L16.0466 3.97333Z" stroke="white" stroke-width="1.66667" stroke-linejoin="round"/>
<path d="M16.6667 11.6667C17.1087 11.6667 17.5326 11.4911 17.8452 11.1785C18.1577 10.866 18.3333 10.442 18.3333 10C18.3333 9.55798 18.1577 9.13406 17.8452 8.8215C17.5326 8.50894 17.1087 8.33334 16.6667 8.33334C16.2246 8.33334 15.8007 8.50894 15.4882 8.8215C15.1756 9.13406 15 9.55798 15 10C15 10.442 15.1756 10.866 15.4882 11.1785C15.8007 11.4911 16.2246 11.6667 16.6667 11.6667Z" stroke="white" stroke-width="1.66667" stroke-linejoin="round"/>
<path d="M7.08329 5.41666V8.74999M5.41663 7.08332H8.74996" stroke="white" stroke-width="1.66667" stroke-linecap="round" stroke-linejoin="round"/>
</g>
<defs>
<clipPath id="clip0_75_8">
<rect width="20" height="20" fill="white"/>
</clipPath>
</defs>
</svg>
