<svg width="16" height="16" viewBox="0 0 16 16" fill="none" xmlns="http://www.w3.org/2000/svg">
<g clip-path="url(#clip0_80_21)">
<path d="M5.14288 3.99999L5.14288 1.71427C5.14288 1.41117 5.26328 1.12048 5.47761 0.906152C5.69194 0.691824 5.98263 0.571416 6.28573 0.571416L14.2857 0.571416C14.5888 0.571416 14.8795 0.691824 15.0939 0.906152C15.3082 1.12048 15.4286 1.41117 15.4286 1.71427L15.4286 14.2857C15.4286 14.5888 15.3082 14.8795 15.0939 15.0938C14.8795 15.3082 14.5888 15.4286 14.2857 15.4286L6.28573 15.4286C5.98263 15.4286 5.69194 15.3082 5.47761 15.0938C5.26328 14.8795 5.14288 14.5888 5.14288 14.2857L5.14288 12M8.57145 7.99999L0.571447 7.99999M0.571447 7.99999L2.85716 10.2857M0.571447 7.99999L2.85716 5.71427" stroke="white" stroke-width="1.42857" stroke-linecap="round" stroke-linejoin="round"/>
</g>
<defs>
<clipPath id="clip0_80_21">
<rect width="16" height="16" fill="white" transform="matrix(-1 0 0 -1 16 16)"/>
</clipPath>
</defs>
</svg>
