<svg width="20" height="20" viewBox="0 0 20 20" fill="none" xmlns="http://www.w3.org/2000/svg">
<path d="M10 10.8333V7.49999M17.5 4.99999L15.8334 3.33332M8.33337 1.66666H11.6667M10 17.5C8.23193 17.5 6.53624 16.7976 5.286 15.5474C4.03575 14.2971 3.33337 12.6014 3.33337 10.8333C3.33337 9.06521 4.03575 7.36952 5.286 6.11928C6.53624 4.86904 8.23193 4.16666 10 4.16666C11.7682 4.16666 13.4638 4.86904 14.7141 6.11928C15.9643 7.36952 16.6667 9.06521 16.6667 10.8333C16.6667 12.6014 15.9643 14.2971 14.7141 15.5474C13.4638 16.7976 11.7682 17.5 10 17.5Z" stroke="white" stroke-width="1.66667" stroke-linecap="round" stroke-linejoin="round"/>
</svg>
